<?xml version="1.0" encoding="utf-8"?>
<!-- Generator: Adobe Illustrator 27.4.1, SVG Export Plug-In . SVG Version: 6.00 Build 0)  -->
<svg version="1.1" id="_レイヤー_2" xmlns="http://www.w3.org/2000/svg" xmlns:xlink="http://www.w3.org/1999/xlink" x="0px"
	 y="0px" viewBox="0 0 92.4 92.4" style="enable-background:new 0 0 92.4 92.4;" xml:space="preserve">
<style type="text/css">
	.st0{fill:#231815;}
	.st1{fill:#FAFAFA;}
</style>
<circle class="st0" cx="46.2" cy="46.2" r="46.2"/>
<path class="st1" d="M41.6,50.7c-0.2-1.6-0.2-3,0.2-4.2s1-2.4,1.8-3.4s1.5-1.9,2.3-2.8c0.8-0.8,1.5-1.7,2-2.5
	c0.6-0.8,0.8-1.6,0.8-2.5c0-0.8-0.2-1.4-0.5-1.9s-0.8-0.9-1.3-1.1c-0.5-0.2-1.2-0.4-1.9-0.4c-1,0-2,0.2-2.8,0.7s-1.6,1.1-2.4,1.9
	l-5-4.6c1.4-1.6,3-2.9,5-3.9s4-1.5,6.3-1.5c2.1,0,4,0.4,5.8,1c1.7,0.7,3,1.8,4,3.3s1.5,3.4,1.5,5.8c0,1.4-0.3,2.7-0.9,3.7
	c-0.6,1.1-1.3,2.1-2.1,3s-1.7,1.8-2.5,2.7s-1.5,1.8-2,2.9c-0.5,1-0.7,2.2-0.6,3.6L41.6,50.7L41.6,50.7z M45.5,65.2
	c-1.6,0-2.8-0.6-3.9-1.7s-1.5-2.4-1.5-4s0.5-2.9,1.5-4s2.3-1.6,3.9-1.6s2.8,0.5,3.9,1.6c1,1.1,1.5,2.4,1.5,4s-0.5,2.9-1.5,4
	C48.4,64.6,47.1,65.2,45.5,65.2z"/>
<rect x="-26.4" y="21.1" class="st1" width="5.6" height="5.6"/>
<rect x="-26.4" y="15.5" class="st0" width="5.6" height="5.6"/>
</svg>
