<?xml version="1.0" encoding="UTF-8"?><svg id="_レイヤー_2" xmlns="http://www.w3.org/2000/svg" viewBox="0 0 92.4 92.4"><defs><style>.cls-1{fill:#fafafa;}</style></defs><g id="_レイヤー_1-2"><circle cx="46.2" cy="46.2" r="46.2"/><path class="cls-1" d="m41.63,50.73c-.24-1.56-.15-2.96.25-4.19.41-1.24.99-2.36,1.75-3.36.76-1,1.54-1.92,2.34-2.77.8-.85,1.47-1.67,2.03-2.46.56-.8.84-1.62.84-2.47,0-.78-.16-1.41-.48-1.91-.32-.49-.75-.87-1.3-1.12-.54-.25-1.17-.38-1.88-.38-1.05,0-1.98.25-2.77.74s-1.58,1.13-2.36,1.91l-4.98-4.57c1.39-1.59,3.04-2.88,4.96-3.86s4.01-1.48,6.28-1.48c2.13,0,4.05.35,5.75,1.04,1.69.7,3.03,1.78,4.02,3.26s1.48,3.4,1.48,5.77c0,1.42-.29,2.67-.87,3.74-.58,1.07-1.29,2.06-2.13,2.97s-1.68,1.82-2.49,2.7c-.81.88-1.48,1.84-1.98,2.87-.51,1.04-.7,2.23-.56,3.58h-7.88Zm3.91,14.44c-1.56,0-2.85-.55-3.86-1.65s-1.53-2.43-1.53-3.99.51-2.92,1.53-3.99,2.3-1.6,3.86-1.6,2.85.53,3.86,1.6c1.02,1.07,1.53,2.4,1.53,3.99s-.51,2.89-1.53,3.99c-1.02,1.1-2.31,1.65-3.86,1.65Z"/></g></svg>