<?xml version="1.0" encoding="utf-8"?>
<!-- Generator: Adobe Illustrator 27.4.1, SVG Export Plug-In . SVG Version: 6.00 Build 0)  -->
<svg version="1.1" id="レイヤー_1" xmlns="http://www.w3.org/2000/svg" xmlns:xlink="http://www.w3.org/1999/xlink" x="0px"
	 y="0px" viewBox="0 0 24 24" style="enable-background:new 0 0 24 24;" xml:space="preserve">
<style type="text/css">
	.st0{fill:#231815;}
	.st1{fill:#FFFFFF;}
</style>
<circle class="st0" cx="12" cy="12" r="12"/>
<path class="st1" d="M11.4,16.4l-2.9-1.7c-0.2-0.1-0.3-0.2-0.4-0.4c-0.1-0.2-0.2-0.4-0.2-0.6v-3.4c0-0.2,0.1-0.4,0.2-0.6
	c0.1-0.2,0.2-0.3,0.4-0.4l2.9-1.7c0.2-0.1,0.4-0.2,0.6-0.2c0.2,0,0.4,0.1,0.6,0.2l2.9,1.7c0.2,0.1,0.3,0.2,0.4,0.4
	c0.1,0.2,0.2,0.4,0.2,0.6v3.4c0,0.2-0.1,0.4-0.2,0.6c-0.1,0.2-0.2,0.3-0.4,0.4l-2.9,1.7c-0.2,0.1-0.4,0.2-0.6,0.2
	C11.8,16.6,11.6,16.5,11.4,16.4z M11.4,15v-2.7L9.1,11v2.7L11.4,15z M12.6,15l2.3-1.4V11l-2.3,1.4V15z M6.1,9.1V7.3
	c0-0.3,0.1-0.6,0.3-0.8C6.7,6.2,7,6.1,7.3,6.1h1.8v1.2H7.3v1.8H6.1z M9.1,17.9H7.3c-0.3,0-0.6-0.1-0.8-0.3c-0.2-0.2-0.3-0.5-0.3-0.8
	v-1.8h1.2v1.8h1.8V17.9z M14.9,17.9v-1.2h1.8v-1.8h1.2v1.8c0,0.3-0.1,0.6-0.3,0.8c-0.2,0.2-0.5,0.3-0.8,0.3H14.9z M16.7,9.1V7.3
	h-1.8V6.1h1.8c0.3,0,0.6,0.1,0.8,0.3c0.2,0.2,0.3,0.5,0.3,0.8v1.8H16.7z M12,11.3l2.3-1.4L12,8.6L9.7,10L12,11.3z"/>
</svg>
