<?xml version="1.0" encoding="utf-8"?>
<!-- Generator: Adobe Illustrator 27.4.1, SVG Export Plug-In . SVG Version: 6.00 Build 0)  -->
<svg version="1.1" id="レイヤー_1" xmlns="http://www.w3.org/2000/svg" xmlns:xlink="http://www.w3.org/1999/xlink" x="0px"
	 y="0px" viewBox="0 0 24 24" style="enable-background:new 0 0 24 24;" xml:space="preserve">
<style type="text/css">
	.st0{fill:#FFFFFF;}
</style>
<circle cx="12" cy="12" r="12"/>
<path class="st0" d="M11.6,9.9h5.7C17,9,16.5,8.3,15.8,7.7s-1.4-1-2.3-1.2L11.6,9.9z M9.9,11.3l2.9-4.9c-0.1,0-0.3,0-0.4-0.1
	c-0.1,0-0.3,0-0.4,0c-0.8,0-1.5,0.1-2.2,0.4C9.1,7,8.5,7.4,8,7.9L9.9,11.3z M6.5,13.4h3.9L7.5,8.5c-0.4,0.5-0.7,1-0.9,1.6
	c-0.2,0.6-0.3,1.2-0.3,1.9c0,0.3,0,0.5,0,0.7C6.4,13,6.4,13.2,6.5,13.4z M10.5,17.5l1.9-3.4H6.7C7,15,7.5,15.7,8.2,16.3
	C8.8,16.8,9.6,17.3,10.5,17.5z M12,17.7c0.8,0,1.5-0.1,2.2-0.4c0.7-0.3,1.3-0.7,1.8-1.2l-1.9-3.4l-2.9,4.9c0.1,0,0.3,0,0.4,0.1
	S11.9,17.7,12,17.7z M16.5,15.5c0.4-0.5,0.7-1,0.9-1.6c0.2-0.6,0.3-1.2,0.3-1.9c0-0.3,0-0.5,0-0.7c0-0.2-0.1-0.5-0.1-0.7h-3.9
	L16.5,15.5z M12,19.1c-1,0-1.9-0.2-2.8-0.6C8.4,18.2,7.6,17.7,7,17c-0.6-0.6-1.2-1.4-1.5-2.3C5,13.9,4.9,13,4.9,12
	c0-1,0.2-1.9,0.6-2.8C5.8,8.4,6.3,7.6,7,7s1.4-1.2,2.3-1.5C10.1,5,11,4.9,12,4.9c1,0,1.9,0.2,2.8,0.6S16.4,6.3,17,7s1.2,1.4,1.5,2.3
	c0.4,0.9,0.6,1.8,0.6,2.8c0,1-0.2,1.9-0.6,2.8c-0.4,0.9-0.9,1.6-1.5,2.3c-0.6,0.6-1.4,1.2-2.3,1.5S13,19.1,12,19.1z"/>
</svg>
