<?xml version="1.0" encoding="utf-8"?>
<!-- Generator: Adobe Illustrator 27.4.1, SVG Export Plug-In . SVG Version: 6.00 Build 0)  -->
<svg version="1.1" id="レイヤー_1" xmlns="http://www.w3.org/2000/svg" xmlns:xlink="http://www.w3.org/1999/xlink" x="0px"
	 y="0px" viewBox="0 0 24 24" style="enable-background:new 0 0 24 24;" xml:space="preserve">
<style type="text/css">
	.st0{fill:#FAFAFA;}
	.st1{fill:#231815;}
</style>
<circle class="st0" cx="12" cy="12" r="12"/>
<path class="st1" d="M8.4,16.3c-1.2,0-2.2-0.4-3.1-1.3s-1.2-1.8-1.2-3s0.4-2.2,1.3-3.1c0.8-0.8,1.9-1.3,3.1-1.3
	c0.8,0,1.5,0.2,2.2,0.6c0.7,0.4,1.2,0.9,1.6,1.6h7.8v4.3h-1.4v2.2h-4.3v-2.2h-2c-0.4,0.6-0.9,1.2-1.6,1.6
	C9.9,16.1,9.2,16.3,8.4,16.3z M8.4,14.9c0.8,0,1.4-0.2,1.9-0.7s0.8-1,0.9-1.4h4.4V15H17v-2.2h1.4v-1.4h-7.3
	c-0.1-0.5-0.4-0.9-0.9-1.4c-0.4-0.6-1-0.9-1.8-0.9s-1.5,0.3-2,0.8s-0.8,1.2-0.8,2s0.3,1.5,0.8,2S7.6,14.9,8.4,14.9z M8.4,13.4
	c0.4,0,0.7-0.1,1-0.4s0.4-0.6,0.4-1s-0.1-0.7-0.4-1c-0.3-0.3-0.6-0.4-1-0.4s-0.7,0.1-1,0.4C7.1,11.3,7,11.6,7,12s0.1,0.7,0.4,1
	C7.7,13.3,8,13.4,8.4,13.4z"/>
<rect x="-8.4" y="10.9" transform="matrix(-1 -1.224647e-16 1.224647e-16 -1 -11.1297 27.3663)" class="st0" width="5.6" height="5.6"/>
<rect x="-8.4" y="5.2" transform="matrix(-1 -1.224647e-16 1.224647e-16 -1 -11.1297 16.0749)" class="st1" width="5.6" height="5.6"/>
</svg>
