<?xml version="1.0" encoding="utf-8"?>
<!-- Generator: Adobe Illustrator 27.4.1, SVG Export Plug-In . SVG Version: 6.00 Build 0)  -->
<svg version="1.1" id="レイヤー_1" xmlns="http://www.w3.org/2000/svg" xmlns:xlink="http://www.w3.org/1999/xlink" x="0px"
	 y="0px" viewBox="0 0 24 24" style="enable-background:new 0 0 24 24;" xml:space="preserve">
<style type="text/css">
	.st0{fill:#FAFAFA;}
	.st1{fill:#231815;}
</style>
<circle class="st0" cx="12" cy="12" r="12"/>
<path class="st1" d="M14.2,18.7l-4.4-1.6l-3.4,1.3c-0.2,0.1-0.5,0.1-0.7-0.1s-0.3-0.4-0.3-0.6V7.4c0-0.2,0-0.3,0.1-0.4
	s0.2-0.2,0.4-0.3l3.9-1.3L14.2,7l3.4-1.3c0.2-0.1,0.5-0.1,0.7,0.1s0.3,0.4,0.3,0.6v10.4c0,0.2,0,0.3-0.1,0.4s-0.2,0.2-0.4,0.3
	L14.2,18.7z M13.5,16.9V8.2l-3-1v8.7L13.5,16.9z M15,16.9l2.2-0.7V7.3L15,8.2V16.9z M6.8,16.7L9,15.8V7.1L6.8,7.9V16.7z M15,8.2v8.7
	V8.2z M9,7.1v8.7V7.1z"/>
<rect x="-12.8" y="10" transform="matrix(-1 -1.224647e-16 1.224647e-16 -1 -19.8663 25.7427)" class="st0" width="5.6" height="5.6"/>
<rect x="-12.8" y="4.4" transform="matrix(-1 -1.224647e-16 1.224647e-16 -1 -19.8663 14.4513)" class="st1" width="5.6" height="5.6"/>
</svg>
