<?xml version="1.0" encoding="utf-8"?>
<!-- Generator: Adobe Illustrator 27.4.1, SVG Export Plug-In . SVG Version: 6.00 Build 0)  -->
<svg version="1.1" id="レイヤー_1" xmlns="http://www.w3.org/2000/svg" xmlns:xlink="http://www.w3.org/1999/xlink" x="0px"
	 y="0px" viewBox="0 0 24 24" style="enable-background:new 0 0 24 24;" xml:space="preserve">
<style type="text/css">
	.st0{fill:#FAFAFA;}
	.st1{fill:#231815;}
</style>
<circle class="st0" cx="12" cy="12" r="12"/>
<path class="st1" d="M7.8,14.2C8.5,14.1,9.2,14,9.9,14s1.4-0.1,2.1-0.1s1.4,0,2.1,0.1c0.7,0,1.4,0.1,2.1,0.2l-2.9-3.5l-1.8,2.2
	l-1.3-1.5L7.8,14.2z M6.2,17.1c-0.2,0-0.3-0.1-0.5-0.2s-0.2-0.3-0.2-0.5V7.5c0-0.2,0.1-0.3,0.2-0.5S6,6.8,6.2,6.8
	c0.1,0,0.3,0.1,0.6,0.2C7.1,7.1,7.5,7.3,8,7.4s1.1,0.2,1.7,0.3c0.7,0.1,1.4,0.2,2.3,0.2s1.6-0.1,2.3-0.2s1.2-0.2,1.7-0.3
	c0.5-0.1,0.9-0.2,1.2-0.3c0.3-0.1,0.5-0.2,0.6-0.2c0.2,0,0.3,0.1,0.5,0.2s0.2,0.3,0.2,0.5v8.9c0,0.2-0.1,0.3-0.2,0.5
	s-0.3,0.2-0.5,0.2c-0.1,0-0.3-0.1-0.6-0.2s-0.7-0.2-1.2-0.3c-0.5-0.1-1.1-0.2-1.7-0.3c-0.7-0.1-1.4-0.2-2.3-0.2s-1.6,0.1-2.3,0.2
	S8.5,16.6,8,16.7S7.1,16.9,6.8,17C6.5,17.1,6.3,17.1,6.2,17.1z M6.9,15.6c0.8-0.2,1.7-0.4,2.5-0.6c0.9-0.1,1.7-0.2,2.6-0.2
	s1.7,0.1,2.6,0.2c0.9,0.1,1.7,0.3,2.5,0.6V8.4c-0.8,0.2-1.7,0.4-2.5,0.5C13.7,9,12.9,9.1,12,9.1S10.3,9,9.4,8.9S7.7,8.7,6.9,8.4
	V15.6z"/>
<rect x="-11.4" y="8.6" transform="matrix(-1 -1.224647e-16 1.224647e-16 -1 -17.0564 22.7543)" class="st0" width="5.6" height="5.6"/>
<rect x="-11.4" y="2.9" transform="matrix(-1 -1.224647e-16 1.224647e-16 -1 -17.0564 11.4629)" class="st1" width="5.6" height="5.6"/>
</svg>
