<?xml version="1.0" encoding="utf-8"?>
<!-- Generator: Adobe Illustrator 27.4.1, SVG Export Plug-In . SVG Version: 6.00 Build 0)  -->
<svg version="1.1" id="レイヤー_1" xmlns="http://www.w3.org/2000/svg" xmlns:xlink="http://www.w3.org/1999/xlink" x="0px"
	 y="0px" viewBox="0 0 24 24" style="enable-background:new 0 0 24 24;" xml:space="preserve">
<style type="text/css">
	.st0{fill:#FFFFFF;}
</style>
<circle cx="12" cy="12" r="12"/>
<path class="st0" d="M12,15.6v-1.1h1.8v-1.8h1.1v2.9H12z M9.1,11.3V8.4H12v1.1h-1.8v1.8H9.1z M8.4,19.9c-0.4,0-0.7-0.1-1-0.4
	c-0.3-0.3-0.4-0.6-0.4-1V5.6c0-0.4,0.1-0.7,0.4-1c0.3-0.3,0.6-0.4,1-0.4h7.1c0.4,0,0.7,0.1,1,0.4s0.4,0.6,0.4,1v12.9
	c0,0.4-0.1,0.7-0.4,1s-0.6,0.4-1,0.4H8.4z M8.4,17.7v0.7h7.1v-0.7H8.4z M8.4,16.3h7.1V7.7H8.4V16.3z M8.4,6.3h7.1V5.6H8.4V6.3z
	 M8.4,6.3V5.6V6.3z M8.4,17.7v0.7V17.7z"/>
</svg>
