<?xml version="1.0" standalone="no"?>
<!DOCTYPE svg PUBLIC "-//W3C//DTD SVG 20010904//EN"
 "http://www.w3.org/TR/2001/REC-SVG-20010904/DTD/svg10.dtd">
<svg version="1.0" xmlns="http://www.w3.org/2000/svg"
 width="216.000000pt" height="216.000000pt" viewBox="0 0 216.000000 216.000000"
 preserveAspectRatio="xMidYMid meet">
<metadata>
Created by potrace 1.16, written by Peter Selinger 2001-2019
</metadata><g><rect x="0" y="0" width="216" height="216" fill="#ffffff" fill-opacity="0" stroke-opacity="0" />
<g transform="translate(0.000000,216.000000) scale(0.015000,-0.015000)"
fill="#231815" stroke="none">
<path d="M1747 12989 c-73 -11 -186 -69 -232 -120 -51 -57 -94 -149 -105 -226
-13 -92 -13 -2005 0 -2097 13 -84 66 -191 121 -241 57 -51 149 -94 226 -105
91 -13 2005 -13 2096 0 77 11 169 54 226 105 55 50 108 157 121 241 13 93 13
2005 0 2098 -13 84 -66 191 -121 241 -57 51 -149 94 -226 105 -84 12 -2023 11
-2106 -1z m1844 -445 c80 -42 126 -89 171 -176 l33 -63 5 -655 c3 -360 2 -681
-2 -713 -9 -67 -54 -161 -103 -216 -48 -53 -158 -109 -231 -118 -33 -5 -354
-6 -714 -3 l-655 5 -72 39 c-40 21 -88 56 -108 77 -49 55 -94 149 -103 216 -4
32 -5 353 -2 713 l5 655 39 72 c45 84 91 129 178 175 l63 33 655 5 c360 3 681
2 714 -3 36 -4 84 -21 127 -43z"/>
<path d="M2547 12189 c-73 -11 -186 -69 -232 -120 -51 -57 -94 -149 -105 -226
-12 -88 -12 -408 0 -496 11 -77 54 -169 105 -226 50 -55 157 -108 241 -121 89
-12 409 -13 497 0 77 11 169 54 226 105 55 50 108 157 121 241 13 89 13 409 0
498 -13 84 -66 191 -121 241 -57 51 -149 94 -226 105 -81 12 -424 11 -506 -1z"/>
<path d="M10547 12989 c-73 -11 -186 -69 -232 -120 -51 -57 -94 -149 -105
-226 -13 -92 -13 -2005 0 -2097 13 -84 66 -191 121 -241 57 -51 149 -94 226
-105 91 -13 2005 -13 2096 0 77 11 169 54 226 105 55 50 108 157 121 241 6 42
10 452 10 1049 0 597 -4 1007 -10 1049 -13 84 -66 191 -121 241 -57 51 -149
94 -226 105 -84 12 -2023 11 -2106 -1z m1844 -445 c80 -42 126 -89 171 -176
l33 -63 5 -655 c3 -360 2 -681 -2 -713 -9 -67 -54 -161 -103 -216 -48 -53
-158 -109 -231 -118 -33 -5 -354 -6 -714 -3 l-655 5 -72 39 c-40 21 -88 56
-108 77 -49 55 -94 149 -103 216 -4 32 -5 353 -2 713 l5 655 39 72 c45 84 91
129 178 175 l63 33 655 5 c360 3 681 2 714 -3 36 -4 84 -21 127 -43z"/>
<path d="M11347 12189 c-73 -11 -186 -69 -232 -120 -51 -57 -94 -149 -105
-226 -5 -37 -10 -149 -10 -248 0 -220 11 -297 50 -376 42 -83 89 -131 169
-173 87 -46 156 -56 386 -56 220 0 297 11 376 50 83 42 131 89 173 169 46 87
56 156 56 386 0 99 -5 211 -10 249 -13 84 -66 191 -121 241 -57 51 -149 94
-226 105 -81 12 -424 11 -506 -1z"/>
<path d="M4732 12949 c-87 -44 -122 -141 -82 -224 43 -90 140 -126 225 -85 90
43 126 140 85 225 -43 90 -144 127 -228 84z"/>
<path d="M5132 12949 c-87 -44 -122 -141 -82 -224 43 -90 140 -126 225 -85 90
43 126 140 85 225 -43 90 -144 127 -228 84z"/>
<path d="M7532 12949 c-87 -44 -122 -141 -82 -224 43 -90 140 -126 225 -85 90
43 126 140 85 225 -43 90 -144 127 -228 84z"/>
<path d="M7932 12949 c-87 -44 -122 -141 -82 -224 43 -90 140 -126 225 -85 90
43 126 140 85 225 -43 90 -144 127 -228 84z"/>
<path d="M8332 12949 c-87 -44 -122 -141 -82 -224 43 -90 140 -126 225 -85 90
43 126 140 85 225 -43 90 -144 127 -228 84z"/>
<path d="M8732 12949 c-87 -44 -122 -141 -82 -224 43 -90 140 -126 225 -85 90
43 126 140 85 225 -43 90 -144 127 -228 84z"/>
<path d="M9132 12949 c-87 -44 -122 -141 -82 -224 43 -90 140 -126 225 -85 90
43 126 140 85 225 -43 90 -144 127 -228 84z"/>
<path d="M9532 12949 c-87 -44 -122 -141 -82 -224 43 -90 140 -126 225 -85 90
43 126 140 85 225 -43 90 -144 127 -228 84z"/>
<path d="M7132 12549 c-87 -44 -122 -141 -82 -224 43 -90 140 -126 225 -85 90
43 126 140 85 225 -43 90 -144 127 -228 84z"/>
<path d="M7532 12549 c-87 -44 -122 -141 -82 -224 43 -90 140 -126 225 -85 90
43 126 140 85 225 -43 90 -144 127 -228 84z"/>
<path d="M9532 12549 c-87 -44 -122 -141 -82 -224 43 -90 140 -126 225 -85 90
43 126 140 85 225 -43 90 -144 127 -228 84z"/>
<path d="M4732 12149 c-87 -44 -122 -141 -82 -224 43 -90 140 -126 225 -85 90
43 126 140 85 225 -43 90 -144 127 -228 84z"/>
<path d="M5932 12149 c-87 -44 -122 -141 -82 -224 43 -90 140 -126 225 -85 90
43 126 140 85 225 -43 90 -144 127 -228 84z"/>
<path d="M6332 12149 c-87 -44 -122 -141 -82 -224 43 -90 140 -126 225 -85 90
43 126 140 85 225 -43 90 -144 127 -228 84z"/>
<path d="M6732 12149 c-87 -44 -122 -141 -82 -224 43 -90 140 -126 225 -85 90
43 126 140 85 225 -43 90 -144 127 -228 84z"/>
<path d="M7132 12149 c-87 -44 -122 -141 -82 -224 43 -90 140 -126 225 -85 90
43 126 140 85 225 -43 90 -144 127 -228 84z"/>
<path d="M7532 12149 c-87 -44 -122 -141 -82 -224 43 -90 140 -126 225 -85 90
43 126 140 85 225 -43 90 -144 127 -228 84z"/>
<path d="M8732 12149 c-87 -44 -122 -141 -82 -224 43 -90 140 -126 225 -85 90
43 126 140 85 225 -43 90 -144 127 -228 84z"/>
<path d="M4732 11749 c-87 -44 -122 -141 -82 -224 43 -90 140 -126 225 -85 90
43 126 140 85 225 -43 90 -144 127 -228 84z"/>
<path d="M5132 11749 c-87 -44 -122 -141 -82 -224 43 -90 140 -126 225 -85 90
43 126 140 85 225 -43 90 -144 127 -228 84z"/>
<path d="M5932 11749 c-87 -44 -122 -141 -82 -224 43 -90 140 -126 225 -85 90
43 126 140 85 225 -43 90 -144 127 -228 84z"/>
<path d="M9532 11749 c-87 -44 -122 -141 -82 -224 43 -90 140 -126 225 -85 90
43 126 140 85 225 -43 90 -144 127 -228 84z"/>
<path d="M4732 11349 c-87 -44 -122 -141 -82 -224 43 -90 140 -126 225 -85 90
43 126 140 85 225 -43 90 -144 127 -228 84z"/>
<path d="M5132 11349 c-87 -44 -122 -141 -82 -224 43 -90 140 -126 225 -85 90
43 126 140 85 225 -43 90 -144 127 -228 84z"/>
<path d="M5532 11349 c-87 -44 -122 -141 -82 -224 43 -90 140 -126 225 -85 90
43 126 140 85 225 -43 90 -144 127 -228 84z"/>
<path d="M5932 11349 c-87 -44 -122 -141 -82 -224 43 -90 140 -126 225 -85 90
43 126 140 85 225 -43 90 -144 127 -228 84z"/>
<path d="M6732 11349 c-87 -44 -122 -141 -82 -224 43 -90 140 -126 225 -85 90
43 126 140 85 225 -43 90 -144 127 -228 84z"/>
<path d="M8332 11349 c-87 -44 -122 -141 -82 -224 43 -90 140 -126 225 -85 90
43 126 140 85 225 -43 90 -144 127 -228 84z"/>
<path d="M8732 11349 c-87 -44 -122 -141 -82 -224 43 -90 140 -126 225 -85 90
43 126 140 85 225 -43 90 -144 127 -228 84z"/>
<path d="M9132 11349 c-87 -44 -122 -141 -82 -224 43 -90 140 -126 225 -85 90
43 126 140 85 225 -43 90 -144 127 -228 84z"/>
<path d="M9532 11349 c-87 -44 -122 -141 -82 -224 43 -90 140 -126 225 -85 90
43 126 140 85 225 -43 90 -144 127 -228 84z"/>
<path d="M5132 10949 c-87 -44 -122 -141 -82 -224 43 -90 140 -126 225 -85 90
43 126 140 85 225 -43 90 -144 127 -228 84z"/>
<path d="M6332 10949 c-87 -44 -122 -141 -82 -224 43 -90 140 -126 225 -85 90
43 126 140 85 225 -43 90 -144 127 -228 84z"/>
<path d="M7132 10949 c-87 -44 -122 -141 -82 -224 43 -90 140 -126 225 -85 90
43 126 140 85 225 -43 90 -144 127 -228 84z"/>
<path d="M7932 10949 c-87 -44 -122 -141 -82 -224 43 -90 140 -126 225 -85 90
43 126 140 85 225 -43 90 -144 127 -228 84z"/>
<path d="M9132 10949 c-87 -44 -122 -141 -82 -224 43 -90 140 -126 225 -85 90
43 126 140 85 225 -43 90 -144 127 -228 84z"/>
<path d="M4732 10549 c-87 -44 -122 -141 -82 -224 43 -90 140 -126 225 -85 90
43 126 140 85 225 -43 90 -144 127 -228 84z"/>
<path d="M5532 10549 c-87 -44 -122 -141 -82 -224 43 -90 140 -126 225 -85 90
43 126 140 85 225 -43 90 -144 127 -228 84z"/>
<path d="M6332 10549 c-87 -44 -122 -141 -82 -224 43 -90 140 -126 225 -85 90
43 126 140 85 225 -43 90 -144 127 -228 84z"/>
<path d="M7132 10549 c-87 -44 -122 -141 -82 -224 43 -90 140 -126 225 -85 90
43 126 140 85 225 -43 90 -144 127 -228 84z"/>
<path d="M7932 10549 c-87 -44 -122 -141 -82 -224 43 -90 140 -126 225 -85 90
43 126 140 85 225 -43 90 -144 127 -228 84z"/>
<path d="M8732 10549 c-87 -44 -122 -141 -82 -224 43 -90 140 -126 225 -85 90
43 126 140 85 225 -43 90 -144 127 -228 84z"/>
<path d="M9532 10549 c-87 -44 -122 -141 -82 -224 43 -90 140 -126 225 -85 90
43 126 140 85 225 -43 90 -144 127 -228 84z"/>
<path d="M5132 10149 c-87 -44 -122 -141 -82 -224 43 -90 140 -126 225 -85 90
43 126 140 85 225 -43 90 -144 127 -228 84z"/>
<path d="M5932 10149 c-87 -44 -122 -141 -82 -224 43 -90 140 -126 225 -85 90
43 126 140 85 225 -43 90 -144 127 -228 84z"/>
<path d="M6732 10149 c-87 -44 -122 -141 -82 -224 43 -90 140 -126 225 -85 90
43 126 140 85 225 -43 90 -144 127 -228 84z"/>
<path d="M7132 10149 c-87 -44 -122 -141 -82 -224 43 -90 140 -126 225 -85 90
43 126 140 85 225 -43 90 -144 127 -228 84z"/>
<path d="M7532 10149 c-87 -44 -122 -141 -82 -224 43 -90 140 -126 225 -85 90
43 126 140 85 225 -43 90 -144 127 -228 84z"/>
<path d="M7932 10149 c-87 -44 -122 -141 -82 -224 43 -90 140 -126 225 -85 90
43 126 140 85 225 -43 90 -144 127 -228 84z"/>
<path d="M8332 10149 c-87 -44 -122 -141 -82 -224 43 -90 140 -126 225 -85 90
43 126 140 85 225 -43 90 -144 127 -228 84z"/>
<path d="M8732 10149 c-87 -44 -122 -141 -82 -224 43 -90 140 -126 225 -85 90
43 126 140 85 225 -43 90 -144 127 -228 84z"/>
<path d="M9132 10149 c-87 -44 -122 -141 -82 -224 43 -90 140 -126 225 -85 90
43 126 140 85 225 -43 90 -144 127 -228 84z"/>
<path d="M1532 9749 c-87 -44 -122 -141 -82 -224 43 -90 140 -126 225 -85 90
43 126 140 85 225 -43 90 -144 127 -228 84z"/>
<path d="M1932 9749 c-87 -44 -122 -141 -82 -224 43 -90 140 -126 225 -85 90
43 126 140 85 225 -43 90 -144 127 -228 84z"/>
<path d="M2332 9749 c-87 -44 -122 -141 -82 -224 43 -90 140 -126 225 -85 90
43 126 140 85 225 -43 90 -144 127 -228 84z"/>
<path d="M2732 9749 c-87 -44 -122 -141 -82 -224 43 -90 140 -126 225 -85 90
43 126 140 85 225 -43 90 -144 127 -228 84z"/>
<path d="M3932 9749 c-87 -44 -122 -141 -82 -224 43 -90 140 -126 225 -85 90
43 126 140 85 225 -43 90 -144 127 -228 84z"/>
<path d="M4732 9749 c-87 -44 -122 -141 -82 -224 43 -90 140 -126 225 -85 90
43 126 140 85 225 -43 90 -144 127 -228 84z"/>
<path d="M6732 9749 c-87 -44 -122 -141 -82 -224 43 -90 140 -126 225 -85 90
43 126 140 85 225 -43 90 -144 127 -228 84z"/>
<path d="M7132 9749 c-87 -44 -122 -141 -82 -224 43 -90 140 -126 225 -85 90
43 126 140 85 225 -43 90 -144 127 -228 84z"/>
<path d="M8332 9749 c-87 -44 -122 -141 -82 -224 43 -90 140 -126 225 -85 90
43 126 140 85 225 -43 90 -144 127 -228 84z"/>
<path d="M8732 9749 c-87 -44 -122 -141 -82 -224 43 -90 140 -126 225 -85 90
43 126 140 85 225 -43 90 -144 127 -228 84z"/>
<path d="M9132 9749 c-87 -44 -122 -141 -82 -224 43 -90 140 -126 225 -85 90
43 126 140 85 225 -43 90 -144 127 -228 84z"/>
<path d="M9532 9749 c-87 -44 -122 -141 -82 -224 43 -90 140 -126 225 -85 90
43 126 140 85 225 -43 90 -144 127 -228 84z"/>
<path d="M9932 9749 c-87 -44 -122 -141 -82 -224 43 -90 140 -126 225 -85 90
43 126 140 85 225 -43 90 -144 127 -228 84z"/>
<path d="M11132 9749 c-87 -44 -122 -141 -82 -224 43 -90 140 -126 225 -85 90
43 126 140 85 225 -43 90 -144 127 -228 84z"/>
<path d="M11532 9749 c-87 -44 -122 -141 -82 -224 43 -90 140 -126 225 -85 90
43 126 140 85 225 -43 90 -144 127 -228 84z"/>
<path d="M11932 9749 c-87 -44 -122 -141 -82 -224 43 -90 140 -126 225 -85 90
43 126 140 85 225 -43 90 -144 127 -228 84z"/>
<path d="M12732 9749 c-87 -44 -122 -141 -82 -224 43 -90 140 -126 225 -85 90
43 126 140 85 225 -43 90 -144 127 -228 84z"/>
<path d="M2332 9349 c-87 -44 -122 -141 -82 -224 43 -90 140 -126 225 -85 90
43 126 140 85 225 -43 90 -144 127 -228 84z"/>
<path d="M2732 9349 c-87 -44 -122 -141 -82 -224 43 -90 140 -126 225 -85 90
43 126 140 85 225 -43 90 -144 127 -228 84z"/>
<path d="M3132 9349 c-87 -44 -122 -141 -82 -224 43 -90 140 -126 225 -85 90
43 126 140 85 225 -43 90 -144 127 -228 84z"/>
<path d="M4332 9349 c-87 -44 -122 -141 -82 -224 43 -90 140 -126 225 -85 90
43 126 140 85 225 -43 90 -144 127 -228 84z"/>
<path d="M5132 9349 c-87 -44 -122 -141 -82 -224 43 -90 140 -126 225 -85 90
43 126 140 85 225 -43 90 -144 127 -228 84z"/>
<path d="M8732 9349 c-87 -44 -122 -141 -82 -224 43 -90 140 -126 225 -85 90
43 126 140 85 225 -43 90 -144 127 -228 84z"/>
<path d="M9132 9349 c-87 -44 -122 -141 -82 -224 43 -90 140 -126 225 -85 90
43 126 140 85 225 -43 90 -144 127 -228 84z"/>
<path d="M9532 9349 c-87 -44 -122 -141 -82 -224 43 -90 140 -126 225 -85 90
43 126 140 85 225 -43 90 -144 127 -228 84z"/>
<path d="M10332 9349 c-87 -44 -122 -141 -82 -224 43 -90 140 -126 225 -85 90
43 126 140 85 225 -43 90 -144 127 -228 84z"/>
<path d="M10732 9349 c-87 -44 -122 -141 -82 -224 43 -90 140 -126 225 -85 90
43 126 140 85 225 -43 90 -144 127 -228 84z"/>
<path d="M11132 9349 c-87 -44 -122 -141 -82 -224 43 -90 140 -126 225 -85 90
43 126 140 85 225 -43 90 -144 127 -228 84z"/>
<path d="M12732 9349 c-87 -44 -122 -141 -82 -224 43 -90 140 -126 225 -85 90
43 126 140 85 225 -43 90 -144 127 -228 84z"/>
<path d="M2732 8949 c-87 -44 -122 -141 -82 -224 43 -90 140 -126 225 -85 90
43 126 140 85 225 -43 90 -144 127 -228 84z"/>
<path d="M3132 8949 c-87 -44 -122 -141 -82 -224 43 -90 140 -126 225 -85 90
43 126 140 85 225 -43 90 -144 127 -228 84z"/>
<path d="M3532 8949 c-87 -44 -122 -141 -82 -224 43 -90 140 -126 225 -85 90
43 126 140 85 225 -43 90 -144 127 -228 84z"/>
<path d="M3932 8949 c-87 -44 -122 -141 -82 -224 43 -90 140 -126 225 -85 90
43 126 140 85 225 -43 90 -144 127 -228 84z"/>
<path d="M4732 8949 c-87 -44 -122 -141 -82 -224 43 -90 140 -126 225 -85 90
43 126 140 85 225 -43 90 -144 127 -228 84z"/>
<path d="M7132 8949 c-87 -44 -122 -141 -82 -224 43 -90 140 -126 225 -85 90
43 126 140 85 225 -43 90 -144 127 -228 84z"/>
<path d="M9532 8949 c-87 -44 -122 -141 -82 -224 43 -90 140 -126 225 -85 90
43 126 140 85 225 -43 90 -144 127 -228 84z"/>
<path d="M11932 8949 c-87 -44 -122 -141 -82 -224 43 -90 140 -126 225 -85 90
43 126 140 85 225 -43 90 -144 127 -228 84z"/>
<path d="M12332 8949 c-87 -44 -122 -141 -82 -224 43 -90 140 -126 225 -85 90
43 126 140 85 225 -43 90 -144 127 -228 84z"/>
<path d="M1932 8549 c-87 -44 -122 -141 -82 -224 43 -90 140 -126 225 -85 90
43 126 140 85 225 -43 90 -144 127 -228 84z"/>
<path d="M2332 8549 c-87 -44 -122 -141 -82 -224 43 -90 140 -126 225 -85 90
43 126 140 85 225 -43 90 -144 127 -228 84z"/>
<path d="M2732 8549 c-87 -44 -122 -141 -82 -224 43 -90 140 -126 225 -85 90
43 126 140 85 225 -43 90 -144 127 -228 84z"/>
<path d="M4332 8549 c-87 -44 -122 -141 -82 -224 43 -90 140 -126 225 -85 90
43 126 140 85 225 -43 90 -144 127 -228 84z"/>
<path d="M4732 8549 c-87 -44 -122 -141 -82 -224 43 -90 140 -126 225 -85 90
43 126 140 85 225 -43 90 -144 127 -228 84z"/>
<path d="M5932 8549 c-87 -44 -122 -141 -82 -224 43 -90 140 -126 225 -85 90
43 126 140 85 225 -43 90 -144 127 -228 84z"/>
<path d="M6332 8549 c-87 -44 -122 -141 -82 -224 43 -90 140 -126 225 -85 90
43 126 140 85 225 -43 90 -144 127 -228 84z"/>
<path d="M6732 8549 c-87 -44 -122 -141 -82 -224 43 -90 140 -126 225 -85 90
43 126 140 85 225 -43 90 -144 127 -228 84z"/>
<path d="M7132 8549 c-87 -44 -122 -141 -82 -224 43 -90 140 -126 225 -85 90
43 126 140 85 225 -43 90 -144 127 -228 84z"/>
<path d="M7532 8549 c-87 -44 -122 -141 -82 -224 43 -90 140 -126 225 -85 90
43 126 140 85 225 -43 90 -144 127 -228 84z"/>
<path d="M7932 8549 c-87 -44 -122 -141 -82 -224 43 -90 140 -126 225 -85 90
43 126 140 85 225 -43 90 -144 127 -228 84z"/>
<path d="M9132 8549 c-87 -44 -122 -141 -82 -224 43 -90 140 -126 225 -85 90
43 126 140 85 225 -43 90 -144 127 -228 84z"/>
<path d="M9532 8549 c-87 -44 -122 -141 -82 -224 43 -90 140 -126 225 -85 90
43 126 140 85 225 -43 90 -144 127 -228 84z"/>
<path d="M9932 8549 c-87 -44 -122 -141 -82 -224 43 -90 140 -126 225 -85 90
43 126 140 85 225 -43 90 -144 127 -228 84z"/>
<path d="M10732 8549 c-87 -44 -122 -141 -82 -224 43 -90 140 -126 225 -85 90
43 126 140 85 225 -43 90 -144 127 -228 84z"/>
<path d="M11132 8549 c-87 -44 -122 -141 -82 -224 43 -90 140 -126 225 -85 90
43 126 140 85 225 -43 90 -144 127 -228 84z"/>
<path d="M12732 8549 c-87 -44 -122 -141 -82 -224 43 -90 140 -126 225 -85 90
43 126 140 85 225 -43 90 -144 127 -228 84z"/>
<path d="M1932 8149 c-87 -44 -122 -141 -82 -224 43 -90 140 -126 225 -85 90
43 126 140 85 225 -43 90 -144 127 -228 84z"/>
<path d="M2332 8149 c-87 -44 -122 -141 -82 -224 43 -90 140 -126 225 -85 90
43 126 140 85 225 -43 90 -144 127 -228 84z"/>
<path d="M3132 8149 c-87 -44 -122 -141 -82 -224 43 -90 140 -126 225 -85 90
43 126 140 85 225 -43 90 -144 127 -228 84z"/>
<path d="M3932 8149 c-87 -44 -122 -141 -82 -224 43 -90 140 -126 225 -85 90
43 126 140 85 225 -43 90 -144 127 -228 84z"/>
<path d="M4332 8149 c-87 -44 -122 -141 -82 -224 43 -90 140 -126 225 -85 90
43 126 140 85 225 -43 90 -144 127 -228 84z"/>
<path d="M4732 8149 c-87 -44 -122 -141 -82 -224 43 -90 140 -126 225 -85 90
43 126 140 85 225 -43 90 -144 127 -228 84z"/>
<path d="M5132 8149 c-87 -44 -122 -141 -82 -224 43 -90 140 -126 225 -85 90
43 126 140 85 225 -43 90 -144 127 -228 84z"/>
<path d="M5932 8149 c-87 -44 -122 -141 -82 -224 43 -90 140 -126 225 -85 90
43 126 140 85 225 -43 90 -144 127 -228 84z"/>
<path d="M7932 8149 c-87 -44 -122 -141 -82 -224 43 -90 140 -126 225 -85 90
43 126 140 85 225 -43 90 -144 127 -228 84z"/>
<path d="M9532 8149 c-87 -44 -122 -141 -82 -224 43 -90 140 -126 225 -85 90
43 126 140 85 225 -43 90 -144 127 -228 84z"/>
<path d="M9932 8149 c-87 -44 -122 -141 -82 -224 43 -90 140 -126 225 -85 90
43 126 140 85 225 -43 90 -144 127 -228 84z"/>
<path d="M11532 8149 c-87 -44 -122 -141 -82 -224 43 -90 140 -126 225 -85 90
43 126 140 85 225 -43 90 -144 127 -228 84z"/>
<path d="M11932 8149 c-87 -44 -122 -141 -82 -224 43 -90 140 -126 225 -85 90
43 126 140 85 225 -43 90 -144 127 -228 84z"/>
<path d="M1532 7749 c-87 -44 -122 -141 -82 -224 43 -90 140 -126 225 -85 90
43 126 140 85 225 -43 90 -144 127 -228 84z"/>
<path d="M1932 7749 c-87 -44 -122 -141 -82 -224 43 -90 140 -126 225 -85 90
43 126 140 85 225 -43 90 -144 127 -228 84z"/>
<path d="M2332 7749 c-87 -44 -122 -141 -82 -224 43 -90 140 -126 225 -85 90
43 126 140 85 225 -43 90 -144 127 -228 84z"/>
<path d="M4332 7749 c-87 -44 -122 -141 -82 -224 43 -90 140 -126 225 -85 90
43 126 140 85 225 -43 90 -144 127 -228 84z"/>
<path d="M4732 7749 c-87 -44 -122 -141 -82 -224 43 -90 140 -126 225 -85 90
43 126 140 85 225 -43 90 -144 127 -228 84z"/>
<path d="M5132 7749 c-87 -44 -122 -141 -82 -224 43 -90 140 -126 225 -85 90
43 126 140 85 225 -43 90 -144 127 -228 84z"/>
<path d="M5532 7749 c-87 -44 -122 -141 -82 -224 43 -90 140 -126 225 -85 90
43 126 140 85 225 -43 90 -144 127 -228 84z"/>
<path d="M5932 7749 c-87 -44 -122 -141 -82 -224 43 -90 140 -126 225 -85 90
43 126 140 85 225 -43 90 -144 127 -228 84z"/>
<path d="M6732 7749 c-87 -44 -122 -141 -82 -224 43 -90 140 -126 225 -85 90
43 126 140 85 225 -43 90 -144 127 -228 84z"/>
<path d="M7532 7749 c-87 -44 -122 -141 -82 -224 43 -90 140 -126 225 -85 90
43 126 140 85 225 -43 90 -144 127 -228 84z"/>
<path d="M7932 7749 c-87 -44 -122 -141 -82 -224 43 -90 140 -126 225 -85 90
43 126 140 85 225 -43 90 -144 127 -228 84z"/>
<path d="M8732 7749 c-87 -44 -122 -141 -82 -224 43 -90 140 -126 225 -85 90
43 126 140 85 225 -43 90 -144 127 -228 84z"/>
<path d="M9132 7749 c-87 -44 -122 -141 -82 -224 43 -90 140 -126 225 -85 90
43 126 140 85 225 -43 90 -144 127 -228 84z"/>
<path d="M10332 7749 c-87 -44 -122 -141 -82 -224 43 -90 140 -126 225 -85 90
43 126 140 85 225 -43 90 -144 127 -228 84z"/>
<path d="M11932 7749 c-87 -44 -122 -141 -82 -224 43 -90 140 -126 225 -85 90
43 126 140 85 225 -43 90 -144 127 -228 84z"/>
<path d="M12332 7749 c-87 -44 -122 -141 -82 -224 43 -90 140 -126 225 -85 90
43 126 140 85 225 -43 90 -144 127 -228 84z"/>
<path d="M12732 7749 c-87 -44 -122 -141 -82 -224 43 -90 140 -126 225 -85 90
43 126 140 85 225 -43 90 -144 127 -228 84z"/>
<path d="M1932 7349 c-87 -44 -122 -141 -82 -224 43 -90 140 -126 225 -85 90
43 126 140 85 225 -43 90 -144 127 -228 84z"/>
<path d="M2332 7349 c-87 -44 -122 -141 -82 -224 43 -90 140 -126 225 -85 90
43 126 140 85 225 -43 90 -144 127 -228 84z"/>
<path d="M3932 7349 c-87 -44 -122 -141 -82 -224 43 -90 140 -126 225 -85 90
43 126 140 85 225 -43 90 -144 127 -228 84z"/>
<path d="M4332 7349 c-87 -44 -122 -141 -82 -224 43 -90 140 -126 225 -85 90
43 126 140 85 225 -43 90 -144 127 -228 84z"/>
<path d="M6332 7349 c-87 -44 -122 -141 -82 -224 43 -90 140 -126 225 -85 90
43 126 140 85 225 -43 90 -144 127 -228 84z"/>
<path d="M7132 7349 c-87 -44 -122 -141 -82 -224 43 -90 140 -126 225 -85 90
43 126 140 85 225 -43 90 -144 127 -228 84z"/>
<path d="M7932 7349 c-87 -44 -122 -141 -82 -224 43 -90 140 -126 225 -85 90
43 126 140 85 225 -43 90 -144 127 -228 84z"/>
<path d="M9132 7349 c-87 -44 -122 -141 -82 -224 43 -90 140 -126 225 -85 90
43 126 140 85 225 -43 90 -144 127 -228 84z"/>
<path d="M9932 7349 c-87 -44 -122 -141 -82 -224 43 -90 140 -126 225 -85 90
43 126 140 85 225 -43 90 -144 127 -228 84z"/>
<path d="M11132 7349 c-87 -44 -122 -141 -82 -224 43 -90 140 -126 225 -85 90
43 126 140 85 225 -43 90 -144 127 -228 84z"/>
<path d="M11932 7349 c-87 -44 -122 -141 -82 -224 43 -90 140 -126 225 -85 90
43 126 140 85 225 -43 90 -144 127 -228 84z"/>
<path d="M12332 7349 c-87 -44 -122 -141 -82 -224 43 -90 140 -126 225 -85 90
43 126 140 85 225 -43 90 -144 127 -228 84z"/>
<path d="M12732 7349 c-87 -44 -122 -141 -82 -224 43 -90 140 -126 225 -85 90
43 126 140 85 225 -43 90 -144 127 -228 84z"/>
<path d="M1532 6949 c-87 -44 -122 -141 -82 -224 43 -90 140 -126 225 -85 90
43 126 140 85 225 -43 90 -144 127 -228 84z"/>
<path d="M1932 6949 c-87 -44 -122 -141 -82 -224 43 -90 140 -126 225 -85 90
43 126 140 85 225 -43 90 -144 127 -228 84z"/>
<path d="M2732 6949 c-87 -44 -122 -141 -82 -224 43 -90 140 -126 225 -85 90
43 126 140 85 225 -43 90 -144 127 -228 84z"/>
<path d="M3532 6949 c-87 -44 -122 -141 -82 -224 43 -90 140 -126 225 -85 90
43 126 140 85 225 -43 90 -144 127 -228 84z"/>
<path d="M4332 6949 c-87 -44 -122 -141 -82 -224 43 -90 140 -126 225 -85 90
43 126 140 85 225 -43 90 -144 127 -228 84z"/>
<path d="M4732 6949 c-87 -44 -122 -141 -82 -224 43 -90 140 -126 225 -85 90
43 126 140 85 225 -43 90 -144 127 -228 84z"/>
<path d="M5132 6949 c-87 -44 -122 -141 -82 -224 43 -90 140 -126 225 -85 90
43 126 140 85 225 -43 90 -144 127 -228 84z"/>
<path d="M6332 6949 c-87 -44 -122 -141 -82 -224 43 -90 140 -126 225 -85 90
43 126 140 85 225 -43 90 -144 127 -228 84z"/>
<path d="M6732 6949 c-87 -44 -122 -141 -82 -224 43 -90 140 -126 225 -85 90
43 126 140 85 225 -43 90 -144 127 -228 84z"/>
<path d="M9532 6949 c-87 -44 -122 -141 -82 -224 43 -90 140 -126 225 -85 90
43 126 140 85 225 -43 90 -144 127 -228 84z"/>
<path d="M9932 6949 c-87 -44 -122 -141 -82 -224 43 -90 140 -126 225 -85 90
43 126 140 85 225 -43 90 -144 127 -228 84z"/>
<path d="M10332 6949 c-87 -44 -122 -141 -82 -224 43 -90 140 -126 225 -85 90
43 126 140 85 225 -43 90 -144 127 -228 84z"/>
<path d="M11132 6949 c-87 -44 -122 -141 -82 -224 43 -90 140 -126 225 -85 90
43 126 140 85 225 -43 90 -144 127 -228 84z"/>
<path d="M12332 6949 c-87 -44 -122 -141 -82 -224 43 -90 140 -126 225 -85 90
43 126 140 85 225 -43 90 -144 127 -228 84z"/>
<path d="M1532 6549 c-87 -44 -122 -141 -82 -224 43 -90 140 -126 225 -85 90
43 126 140 85 225 -43 90 -144 127 -228 84z"/>
<path d="M3932 6549 c-87 -44 -122 -141 -82 -224 43 -90 140 -126 225 -85 90
43 126 140 85 225 -43 90 -144 127 -228 84z"/>
<path d="M4332 6549 c-87 -44 -122 -141 -82 -224 43 -90 140 -126 225 -85 90
43 126 140 85 225 -43 90 -144 127 -228 84z"/>
<path d="M5532 6549 c-87 -44 -122 -141 -82 -224 43 -90 140 -126 225 -85 90
43 126 140 85 225 -43 90 -144 127 -228 84z"/>
<path d="M5932 6549 c-87 -44 -122 -141 -82 -224 43 -90 140 -126 225 -85 90
43 126 140 85 225 -43 90 -144 127 -228 84z"/>
<path d="M7932 6549 c-87 -44 -122 -141 -82 -224 43 -90 140 -126 225 -85 90
43 126 140 85 225 -43 90 -144 127 -228 84z"/>
<path d="M8732 6549 c-87 -44 -122 -141 -82 -224 43 -90 140 -126 225 -85 90
43 126 140 85 225 -43 90 -144 127 -228 84z"/>
<path d="M9932 6549 c-87 -44 -122 -141 -82 -224 43 -90 140 -126 225 -85 90
43 126 140 85 225 -43 90 -144 127 -228 84z"/>
<path d="M11132 6549 c-87 -44 -122 -141 -82 -224 43 -90 140 -126 225 -85 90
43 126 140 85 225 -43 90 -144 127 -228 84z"/>
<path d="M11532 6549 c-87 -44 -122 -141 -82 -224 43 -90 140 -126 225 -85 90
43 126 140 85 225 -43 90 -144 127 -228 84z"/>
<path d="M12332 6549 c-87 -44 -122 -141 -82 -224 43 -90 140 -126 225 -85 90
43 126 140 85 225 -43 90 -144 127 -228 84z"/>
<path d="M1932 6149 c-87 -44 -122 -141 -82 -224 43 -90 140 -126 225 -85 90
43 126 140 85 225 -43 90 -144 127 -228 84z"/>
<path d="M2332 6149 c-87 -44 -122 -141 -82 -224 43 -90 140 -126 225 -85 90
43 126 140 85 225 -43 90 -144 127 -228 84z"/>
<path d="M2732 6149 c-87 -44 -122 -141 -82 -224 43 -90 140 -126 225 -85 90
43 126 140 85 225 -43 90 -144 127 -228 84z"/>
<path d="M4332 6149 c-87 -44 -122 -141 -82 -224 43 -90 140 -126 225 -85 90
43 126 140 85 225 -43 90 -144 127 -228 84z"/>
<path d="M4732 6149 c-87 -44 -122 -141 -82 -224 43 -90 140 -126 225 -85 90
43 126 140 85 225 -43 90 -144 127 -228 84z"/>
<path d="M5132 6149 c-87 -44 -122 -141 -82 -224 43 -90 140 -126 225 -85 90
43 126 140 85 225 -43 90 -144 127 -228 84z"/>
<path d="M6332 6149 c-87 -44 -122 -141 -82 -224 43 -90 140 -126 225 -85 90
43 126 140 85 225 -43 90 -144 127 -228 84z"/>
<path d="M6732 6149 c-87 -44 -122 -141 -82 -224 43 -90 140 -126 225 -85 90
43 126 140 85 225 -43 90 -144 127 -228 84z"/>
<path d="M7532 6149 c-87 -44 -122 -141 -82 -224 43 -90 140 -126 225 -85 90
43 126 140 85 225 -43 90 -144 127 -228 84z"/>
<path d="M9532 6149 c-87 -44 -122 -141 -82 -224 43 -90 140 -126 225 -85 90
43 126 140 85 225 -43 90 -144 127 -228 84z"/>
<path d="M10732 6149 c-87 -44 -122 -141 -82 -224 43 -90 140 -126 225 -85 90
43 126 140 85 225 -43 90 -144 127 -228 84z"/>
<path d="M11532 6149 c-87 -44 -122 -141 -82 -224 43 -90 140 -126 225 -85 90
43 126 140 85 225 -43 90 -144 127 -228 84z"/>
<path d="M11932 6149 c-87 -44 -122 -141 -82 -224 43 -90 140 -126 225 -85 90
43 126 140 85 225 -43 90 -144 127 -228 84z"/>
<path d="M12332 6149 c-87 -44 -122 -141 -82 -224 43 -90 140 -126 225 -85 90
43 126 140 85 225 -43 90 -144 127 -228 84z"/>
<path d="M1532 5749 c-87 -44 -122 -141 -82 -224 43 -90 140 -126 225 -85 90
43 126 140 85 225 -43 90 -144 127 -228 84z"/>
<path d="M2732 5749 c-87 -44 -122 -141 -82 -224 43 -90 140 -126 225 -85 90
43 126 140 85 225 -43 90 -144 127 -228 84z"/>
<path d="M3532 5749 c-87 -44 -122 -141 -82 -224 43 -90 140 -126 225 -85 90
43 126 140 85 225 -43 90 -144 127 -228 84z"/>
<path d="M3932 5749 c-87 -44 -122 -141 -82 -224 43 -90 140 -126 225 -85 90
43 126 140 85 225 -43 90 -144 127 -228 84z"/>
<path d="M5132 5749 c-87 -44 -122 -141 -82 -224 43 -90 140 -126 225 -85 90
43 126 140 85 225 -43 90 -144 127 -228 84z"/>
<path d="M5532 5749 c-87 -44 -122 -141 -82 -224 43 -90 140 -126 225 -85 90
43 126 140 85 225 -43 90 -144 127 -228 84z"/>
<path d="M5932 5749 c-87 -44 -122 -141 -82 -224 43 -90 140 -126 225 -85 90
43 126 140 85 225 -43 90 -144 127 -228 84z"/>
<path d="M6332 5749 c-87 -44 -122 -141 -82 -224 43 -90 140 -126 225 -85 90
43 126 140 85 225 -43 90 -144 127 -228 84z"/>
<path d="M7532 5749 c-87 -44 -122 -141 -82 -224 43 -90 140 -126 225 -85 90
43 126 140 85 225 -43 90 -144 127 -228 84z"/>
<path d="M9532 5749 c-87 -44 -122 -141 -82 -224 43 -90 140 -126 225 -85 90
43 126 140 85 225 -43 90 -144 127 -228 84z"/>
<path d="M10732 5749 c-87 -44 -122 -141 -82 -224 43 -90 140 -126 225 -85 90
43 126 140 85 225 -43 90 -144 127 -228 84z"/>
<path d="M11932 5749 c-87 -44 -122 -141 -82 -224 43 -90 140 -126 225 -85 90
43 126 140 85 225 -43 90 -144 127 -228 84z"/>
<path d="M2332 5349 c-87 -44 -122 -141 -82 -224 43 -90 140 -126 225 -85 90
43 126 140 85 225 -43 90 -144 127 -228 84z"/>
<path d="M3532 5349 c-87 -44 -122 -141 -82 -224 43 -90 140 -126 225 -85 90
43 126 140 85 225 -43 90 -144 127 -228 84z"/>
<path d="M5532 5349 c-87 -44 -122 -141 -82 -224 43 -90 140 -126 225 -85 90
43 126 140 85 225 -43 90 -144 127 -228 84z"/>
<path d="M6332 5349 c-87 -44 -122 -141 -82 -224 43 -90 140 -126 225 -85 90
43 126 140 85 225 -43 90 -144 127 -228 84z"/>
<path d="M7532 5349 c-87 -44 -122 -141 -82 -224 43 -90 140 -126 225 -85 90
43 126 140 85 225 -43 90 -144 127 -228 84z"/>
<path d="M7932 5349 c-87 -44 -122 -141 -82 -224 43 -90 140 -126 225 -85 90
43 126 140 85 225 -43 90 -144 127 -228 84z"/>
<path d="M8332 5349 c-87 -44 -122 -141 -82 -224 43 -90 140 -126 225 -85 90
43 126 140 85 225 -43 90 -144 127 -228 84z"/>
<path d="M9132 5349 c-87 -44 -122 -141 -82 -224 43 -90 140 -126 225 -85 90
43 126 140 85 225 -43 90 -144 127 -228 84z"/>
<path d="M9932 5349 c-87 -44 -122 -141 -82 -224 43 -90 140 -126 225 -85 90
43 126 140 85 225 -43 90 -144 127 -228 84z"/>
<path d="M10332 5349 c-87 -44 -122 -141 -82 -224 43 -90 140 -126 225 -85 90
43 126 140 85 225 -43 90 -144 127 -228 84z"/>
<path d="M11132 5349 c-87 -44 -122 -141 -82 -224 43 -90 140 -126 225 -85 90
43 126 140 85 225 -43 90 -144 127 -228 84z"/>
<path d="M11932 5349 c-87 -44 -122 -141 -82 -224 43 -90 140 -126 225 -85 90
43 126 140 85 225 -43 90 -144 127 -228 84z"/>
<path d="M1932 4949 c-87 -44 -122 -141 -82 -224 43 -90 140 -126 225 -85 90
43 126 140 85 225 -43 90 -144 127 -228 84z"/>
<path d="M2332 4949 c-87 -44 -122 -141 -82 -224 43 -90 140 -126 225 -85 90
43 126 140 85 225 -43 90 -144 127 -228 84z"/>
<path d="M3932 4949 c-87 -44 -122 -141 -82 -224 43 -90 140 -126 225 -85 90
43 126 140 85 225 -43 90 -144 127 -228 84z"/>
<path d="M4332 4949 c-87 -44 -122 -141 -82 -224 43 -90 140 -126 225 -85 90
43 126 140 85 225 -43 90 -144 127 -228 84z"/>
<path d="M5132 4949 c-87 -44 -122 -141 -82 -224 43 -90 140 -126 225 -85 90
43 126 140 85 225 -43 90 -144 127 -228 84z"/>
<path d="M5932 4949 c-87 -44 -122 -141 -82 -224 43 -90 140 -126 225 -85 90
43 126 140 85 225 -43 90 -144 127 -228 84z"/>
<path d="M6332 4949 c-87 -44 -122 -141 -82 -224 43 -90 140 -126 225 -85 90
43 126 140 85 225 -43 90 -144 127 -228 84z"/>
<path d="M6732 4949 c-87 -44 -122 -141 -82 -224 43 -90 140 -126 225 -85 90
43 126 140 85 225 -43 90 -144 127 -228 84z"/>
<path d="M8332 4949 c-87 -44 -122 -141 -82 -224 43 -90 140 -126 225 -85 90
43 126 140 85 225 -43 90 -144 127 -228 84z"/>
<path d="M8732 4949 c-87 -44 -122 -141 -82 -224 43 -90 140 -126 225 -85 90
43 126 140 85 225 -43 90 -144 127 -228 84z"/>
<path d="M9532 4949 c-87 -44 -122 -141 -82 -224 43 -90 140 -126 225 -85 90
43 126 140 85 225 -43 90 -144 127 -228 84z"/>
<path d="M9932 4949 c-87 -44 -122 -141 -82 -224 43 -90 140 -126 225 -85 90
43 126 140 85 225 -43 90 -144 127 -228 84z"/>
<path d="M10332 4949 c-87 -44 -122 -141 -82 -224 43 -90 140 -126 225 -85 90
43 126 140 85 225 -43 90 -144 127 -228 84z"/>
<path d="M10732 4949 c-87 -44 -122 -141 -82 -224 43 -90 140 -126 225 -85 90
43 126 140 85 225 -43 90 -144 127 -228 84z"/>
<path d="M11132 4949 c-87 -44 -122 -141 -82 -224 43 -90 140 -126 225 -85 90
43 126 140 85 225 -43 90 -144 127 -228 84z"/>
<path d="M11532 4949 c-87 -44 -122 -141 -82 -224 43 -90 140 -126 225 -85 90
43 126 140 85 225 -43 90 -144 127 -228 84z"/>
<path d="M11932 4949 c-87 -44 -122 -141 -82 -224 43 -90 140 -126 225 -85 90
43 126 140 85 225 -43 90 -144 127 -228 84z"/>
<path d="M4732 4549 c-87 -44 -122 -141 -82 -224 43 -90 140 -126 225 -85 90
43 126 140 85 225 -43 90 -144 127 -228 84z"/>
<path d="M6332 4549 c-87 -44 -122 -141 -82 -224 43 -90 140 -126 225 -85 90
43 126 140 85 225 -43 90 -144 127 -228 84z"/>
<path d="M6732 4549 c-87 -44 -122 -141 -82 -224 43 -90 140 -126 225 -85 90
43 126 140 85 225 -43 90 -144 127 -228 84z"/>
<path d="M7132 4549 c-87 -44 -122 -141 -82 -224 43 -90 140 -126 225 -85 90
43 126 140 85 225 -43 90 -144 127 -228 84z"/>
<path d="M9532 4549 c-87 -44 -122 -141 -82 -224 43 -90 140 -126 225 -85 90
43 126 140 85 225 -43 90 -144 127 -228 84z"/>
<path d="M11132 4549 c-87 -44 -122 -141 -82 -224 43 -90 140 -126 225 -85 90
43 126 140 85 225 -43 90 -144 127 -228 84z"/>
<path d="M11532 4549 c-87 -44 -122 -141 -82 -224 43 -90 140 -126 225 -85 90
43 126 140 85 225 -43 90 -144 127 -228 84z"/>
<path d="M11932 4549 c-87 -44 -122 -141 -82 -224 43 -90 140 -126 225 -85 90
43 126 140 85 225 -43 90 -144 127 -228 84z"/>
<path d="M12332 4549 c-87 -44 -122 -141 -82 -224 43 -90 140 -126 225 -85 90
43 126 140 85 225 -43 90 -144 127 -228 84z"/>
<path d="M12732 4549 c-87 -44 -122 -141 -82 -224 43 -90 140 -126 225 -85 90
43 126 140 85 225 -43 90 -144 127 -228 84z"/>
<path d="M1747 4189 c-73 -11 -186 -69 -232 -120 -51 -57 -94 -149 -105 -226
-13 -92 -13 -2005 0 -2097 13 -84 66 -191 121 -241 57 -51 149 -94 226 -105
91 -13 2005 -13 2096 0 77 11 169 54 226 105 55 50 108 157 121 241 13 93 13
2005 0 2098 -13 84 -66 191 -121 241 -57 51 -149 94 -226 105 -84 12 -2023 11
-2106 -1z m1844 -445 c80 -42 126 -89 171 -176 l33 -63 5 -655 c3 -360 2 -681
-2 -713 -9 -67 -54 -161 -103 -216 -48 -53 -158 -109 -231 -118 -33 -5 -354
-6 -714 -3 l-655 5 -72 39 c-40 21 -88 56 -108 77 -49 55 -94 149 -103 216 -4
32 -5 353 -2 713 l5 655 39 72 c45 84 91 129 178 175 l63 33 655 5 c360 3 681
2 714 -3 36 -4 84 -21 127 -43z"/>
<path d="M2547 3389 c-73 -11 -186 -69 -232 -120 -51 -57 -94 -149 -105 -226
-12 -88 -12 -408 0 -496 11 -77 54 -169 105 -226 50 -55 157 -108 241 -121 89
-12 409 -13 497 0 77 11 169 54 226 105 55 50 108 157 121 241 13 89 13 409 0
498 -13 84 -66 191 -121 241 -57 51 -149 94 -226 105 -81 12 -424 11 -506 -1z"/>
<path d="M10342 4189 c-49 -15 -118 -89 -132 -140 -24 -87 15 -180 97 -230 57
-35 145 -34 201 4 66 43 97 98 97 172 0 50 -5 69 -28 103 -52 80 -149 117
-235 91z"/>
<path d="M5132 4149 c-87 -44 -122 -141 -82 -224 43 -90 140 -126 225 -85 90
43 126 140 85 225 -43 90 -144 127 -228 84z"/>
<path d="M5532 4149 c-87 -44 -122 -141 -82 -224 43 -90 140 -126 225 -85 90
43 126 140 85 225 -43 90 -144 127 -228 84z"/>
<path d="M5932 4149 c-87 -44 -122 -141 -82 -224 43 -90 140 -126 225 -85 90
43 126 140 85 225 -43 90 -144 127 -228 84z"/>
<path d="M6332 4149 c-87 -44 -122 -141 -82 -224 43 -90 140 -126 225 -85 90
43 126 140 85 225 -43 90 -144 127 -228 84z"/>
<path d="M6732 4149 c-87 -44 -122 -141 -82 -224 43 -90 140 -126 225 -85 90
43 126 140 85 225 -43 90 -144 127 -228 84z"/>
<path d="M7932 4149 c-87 -44 -122 -141 -82 -224 43 -90 140 -126 225 -85 90
43 126 140 85 225 -43 90 -144 127 -228 84z"/>
<path d="M8732 4149 c-87 -44 -122 -141 -82 -224 43 -90 140 -126 225 -85 90
43 126 140 85 225 -43 90 -144 127 -228 84z"/>
<path d="M9132 4149 c-87 -44 -122 -141 -82 -224 43 -90 140 -126 225 -85 90
43 126 140 85 225 -43 90 -144 127 -228 84z"/>
<path d="M9532 4149 c-87 -44 -122 -141 -82 -224 43 -90 140 -126 225 -85 90
43 126 140 85 225 -43 90 -144 127 -228 84z"/>
<path d="M11132 4149 c-87 -44 -122 -141 -82 -224 43 -90 140 -126 225 -85 90
43 126 140 85 225 -43 90 -144 127 -228 84z"/>
<path d="M11532 4149 c-87 -44 -122 -141 -82 -224 43 -90 140 -126 225 -85 90
43 126 140 85 225 -43 90 -144 127 -228 84z"/>
<path d="M12332 4149 c-87 -44 -122 -141 -82 -224 43 -90 140 -126 225 -85 90
43 126 140 85 225 -43 90 -144 127 -228 84z"/>
<path d="M5132 3749 c-87 -44 -122 -141 -82 -224 43 -90 140 -126 225 -85 90
43 126 140 85 225 -43 90 -144 127 -228 84z"/>
<path d="M7532 3749 c-87 -44 -122 -141 -82 -224 43 -90 140 -126 225 -85 90
43 126 140 85 225 -43 90 -144 127 -228 84z"/>
<path d="M9132 3749 c-87 -44 -122 -141 -82 -224 43 -90 140 -126 225 -85 90
43 126 140 85 225 -43 90 -144 127 -228 84z"/>
<path d="M9532 3749 c-87 -44 -122 -141 -82 -224 43 -90 140 -126 225 -85 90
43 126 140 85 225 -43 90 -144 127 -228 84z"/>
<path d="M11132 3749 c-87 -44 -122 -141 -82 -224 43 -90 140 -126 225 -85 90
43 126 140 85 225 -43 90 -144 127 -228 84z"/>
<path d="M11532 3749 c-87 -44 -122 -141 -82 -224 43 -90 140 -126 225 -85 90
43 126 140 85 225 -43 90 -144 127 -228 84z"/>
<path d="M12332 3749 c-87 -44 -122 -141 -82 -224 43 -90 140 -126 225 -85 90
43 126 140 85 225 -43 90 -144 127 -228 84z"/>
<path d="M5532 3349 c-87 -44 -122 -141 -82 -224 43 -90 140 -126 225 -85 90
43 126 140 85 225 -43 90 -144 127 -228 84z"/>
<path d="M6332 3349 c-87 -44 -122 -141 -82 -224 43 -90 140 -126 225 -85 90
43 126 140 85 225 -43 90 -144 127 -228 84z"/>
<path d="M7132 3349 c-87 -44 -122 -141 -82 -224 43 -90 140 -126 225 -85 90
43 126 140 85 225 -43 90 -144 127 -228 84z"/>
<path d="M7532 3349 c-87 -44 -122 -141 -82 -224 43 -90 140 -126 225 -85 90
43 126 140 85 225 -43 90 -144 127 -228 84z"/>
<path d="M7932 3349 c-87 -44 -122 -141 -82 -224 43 -90 140 -126 225 -85 90
43 126 140 85 225 -43 90 -144 127 -228 84z"/>
<path d="M9532 3349 c-87 -44 -122 -141 -82 -224 43 -90 140 -126 225 -85 90
43 126 140 85 225 -43 90 -144 127 -228 84z"/>
<path d="M9932 3349 c-87 -44 -122 -141 -82 -224 43 -90 140 -126 225 -85 90
43 126 140 85 225 -43 90 -144 127 -228 84z"/>
<path d="M10332 3349 c-87 -44 -122 -141 -82 -224 43 -90 140 -126 225 -85 90
43 126 140 85 225 -43 90 -144 127 -228 84z"/>
<path d="M10732 3349 c-87 -44 -122 -141 -82 -224 43 -90 140 -126 225 -85 90
43 126 140 85 225 -43 90 -144 127 -228 84z"/>
<path d="M11132 3349 c-87 -44 -122 -141 -82 -224 43 -90 140 -126 225 -85 90
43 126 140 85 225 -43 90 -144 127 -228 84z"/>
<path d="M11932 3349 c-87 -44 -122 -141 -82 -224 43 -90 140 -126 225 -85 90
43 126 140 85 225 -43 90 -144 127 -228 84z"/>
<path d="M12332 3349 c-87 -44 -122 -141 -82 -224 43 -90 140 -126 225 -85 90
43 126 140 85 225 -43 90 -144 127 -228 84z"/>
<path d="M4732 2949 c-87 -44 -122 -141 -82 -224 43 -90 140 -126 225 -85 90
43 126 140 85 225 -43 90 -144 127 -228 84z"/>
<path d="M5132 2949 c-87 -44 -122 -141 -82 -224 43 -90 140 -126 225 -85 90
43 126 140 85 225 -43 90 -144 127 -228 84z"/>
<path d="M5932 2949 c-87 -44 -122 -141 -82 -224 43 -90 140 -126 225 -85 90
43 126 140 85 225 -43 90 -144 127 -228 84z"/>
<path d="M6332 2949 c-87 -44 -122 -141 -82 -224 43 -90 140 -126 225 -85 90
43 126 140 85 225 -43 90 -144 127 -228 84z"/>
<path d="M7132 2949 c-87 -44 -122 -141 -82 -224 43 -90 140 -126 225 -85 90
43 126 140 85 225 -43 90 -144 127 -228 84z"/>
<path d="M7532 2949 c-87 -44 -122 -141 -82 -224 43 -90 140 -126 225 -85 90
43 126 140 85 225 -43 90 -144 127 -228 84z"/>
<path d="M7932 2949 c-87 -44 -122 -141 -82 -224 43 -90 140 -126 225 -85 90
43 126 140 85 225 -43 90 -144 127 -228 84z"/>
<path d="M8732 2949 c-87 -44 -122 -141 -82 -224 43 -90 140 -126 225 -85 90
43 126 140 85 225 -43 90 -144 127 -228 84z"/>
<path d="M9132 2949 c-87 -44 -122 -141 -82 -224 43 -90 140 -126 225 -85 90
43 126 140 85 225 -43 90 -144 127 -228 84z"/>
<path d="M9532 2949 c-87 -44 -122 -141 -82 -224 43 -90 140 -126 225 -85 90
43 126 140 85 225 -43 90 -144 127 -228 84z"/>
<path d="M9932 2949 c-87 -44 -122 -141 -82 -224 43 -90 140 -126 225 -85 90
43 126 140 85 225 -43 90 -144 127 -228 84z"/>
<path d="M10732 2949 c-87 -44 -122 -141 -82 -224 43 -90 140 -126 225 -85 90
43 126 140 85 225 -43 90 -144 127 -228 84z"/>
<path d="M11132 2949 c-87 -44 -122 -141 -82 -224 43 -90 140 -126 225 -85 90
43 126 140 85 225 -43 90 -144 127 -228 84z"/>
<path d="M11532 2949 c-87 -44 -122 -141 -82 -224 43 -90 140 -126 225 -85 90
43 126 140 85 225 -43 90 -144 127 -228 84z"/>
<path d="M12732 2949 c-87 -44 -122 -141 -82 -224 43 -90 140 -126 225 -85 90
43 126 140 85 225 -43 90 -144 127 -228 84z"/>
<path d="M4732 2549 c-87 -44 -122 -141 -82 -224 43 -90 140 -126 225 -85 90
43 126 140 85 225 -43 90 -144 127 -228 84z"/>
<path d="M5532 2549 c-87 -44 -122 -141 -82 -224 43 -90 140 -126 225 -85 90
43 126 140 85 225 -43 90 -144 127 -228 84z"/>
<path d="M5932 2549 c-87 -44 -122 -141 -82 -224 43 -90 140 -126 225 -85 90
43 126 140 85 225 -43 90 -144 127 -228 84z"/>
<path d="M6732 2549 c-87 -44 -122 -141 -82 -224 43 -90 140 -126 225 -85 90
43 126 140 85 225 -43 90 -144 127 -228 84z"/>
<path d="M10732 2549 c-87 -44 -122 -141 -82 -224 43 -90 140 -126 225 -85 90
43 126 140 85 225 -43 90 -144 127 -228 84z"/>
<path d="M11932 2549 c-87 -44 -122 -141 -82 -224 43 -90 140 -126 225 -85 90
43 126 140 85 225 -43 90 -144 127 -228 84z"/>
<path d="M12732 2549 c-87 -44 -122 -141 -82 -224 43 -90 140 -126 225 -85 90
43 126 140 85 225 -43 90 -144 127 -228 84z"/>
<path d="M4732 2149 c-87 -44 -122 -141 -82 -224 43 -90 140 -126 225 -85 90
43 126 140 85 225 -43 90 -144 127 -228 84z"/>
<path d="M5932 2149 c-87 -44 -122 -141 -82 -224 43 -90 140 -126 225 -85 90
43 126 140 85 225 -43 90 -144 127 -228 84z"/>
<path d="M7132 2149 c-87 -44 -122 -141 -82 -224 43 -90 140 -126 225 -85 90
43 126 140 85 225 -43 90 -144 127 -228 84z"/>
<path d="M7532 2149 c-87 -44 -122 -141 -82 -224 43 -90 140 -126 225 -85 90
43 126 140 85 225 -43 90 -144 127 -228 84z"/>
<path d="M9532 2149 c-87 -44 -122 -141 -82 -224 43 -90 140 -126 225 -85 90
43 126 140 85 225 -43 90 -144 127 -228 84z"/>
<path d="M10332 2149 c-87 -44 -122 -141 -82 -224 43 -90 140 -126 225 -85 90
43 126 140 85 225 -43 90 -144 127 -228 84z"/>
<path d="M11532 2149 c-87 -44 -122 -141 -82 -224 43 -90 140 -126 225 -85 90
43 126 140 85 225 -43 90 -144 127 -228 84z"/>
<path d="M12332 2149 c-87 -44 -122 -141 -82 -224 43 -90 140 -126 225 -85 90
43 126 140 85 225 -43 90 -144 127 -228 84z"/>
<path d="M4732 1749 c-87 -44 -122 -141 -82 -224 43 -90 140 -126 225 -85 90
43 126 140 85 225 -43 90 -144 127 -228 84z"/>
<path d="M5132 1749 c-87 -44 -122 -141 -82 -224 43 -90 140 -126 225 -85 90
43 126 140 85 225 -43 90 -144 127 -228 84z"/>
<path d="M5532 1749 c-87 -44 -122 -141 -82 -224 43 -90 140 -126 225 -85 90
43 126 140 85 225 -43 90 -144 127 -228 84z"/>
<path d="M6332 1749 c-87 -44 -122 -141 -82 -224 43 -90 140 -126 225 -85 90
43 126 140 85 225 -43 90 -144 127 -228 84z"/>
<path d="M7132 1749 c-87 -44 -122 -141 -82 -224 43 -90 140 -126 225 -85 90
43 126 140 85 225 -43 90 -144 127 -228 84z"/>
<path d="M7532 1749 c-87 -44 -122 -141 -82 -224 43 -90 140 -126 225 -85 90
43 126 140 85 225 -43 90 -144 127 -228 84z"/>
<path d="M7932 1749 c-87 -44 -122 -141 -82 -224 43 -90 140 -126 225 -85 90
43 126 140 85 225 -43 90 -144 127 -228 84z"/>
<path d="M8732 1749 c-87 -44 -122 -141 -82 -224 43 -90 140 -126 225 -85 90
43 126 140 85 225 -43 90 -144 127 -228 84z"/>
<path d="M9132 1749 c-87 -44 -122 -141 -82 -224 43 -90 140 -126 225 -85 90
43 126 140 85 225 -43 90 -144 127 -228 84z"/>
<path d="M9532 1749 c-87 -44 -122 -141 -82 -224 43 -90 140 -126 225 -85 90
43 126 140 85 225 -43 90 -144 127 -228 84z"/>
<path d="M12332 1749 c-87 -44 -122 -141 -82 -224 43 -90 140 -126 225 -85 90
43 126 140 85 225 -43 90 -144 127 -228 84z"/>
</g>
</g></svg>
