<?xml version="1.0" encoding="UTF-8"?>
<svg xmlns="http://www.w3.org/2000/svg" version="1.1" viewBox="0 0 50 50">
  <!-- Generator: Adobe Illustrator 28.7.2, SVG Export Plug-In . SVG Version: 1.2.0 Build 154)  -->
  <g>
    <g id="_レイヤー_2">
      <g id="_テキスト">
        <path d="M15.8,0h18.9C34.6,0,34.5,0,34.5,0c-.3,0-.6,0-.9,0h-.9c.5,0,1.1,0,1.6,0,1,0,1.9,0,2.9.2,1.5.2,3,.5,4.5,1.1,2.8,1.1,4.9,3,6.3,5.6,1.2,2,1.7,4.3,1.8,6.6,0,1.2,0,2.5.1,3.8,0,0,0,.2,0,.2,0,0,0-.2,0-.3,0-.4,0-.7,0-1v16.6c0-.2,0-.4,0-.6,0,0,0,.1,0,.2,0,.7,0,1.4,0,2.1,0,2-.3,3.9-.8,5.8-.8,2.5-2.1,4.5-4.1,6.2-1.4,1.2-3.1,2-4.9,2.5-1.5.4-3.1.6-4.7.7-1.6,0-3.2.1-4.8.1-4.6,0-9.2,0-13.7,0-1.3,0-2.6-.1-4-.2-1.1,0-2.2-.4-3.2-.7-2.5-.8-4.5-2.2-6.1-4.2-1.1-1.3-1.8-2.9-2.3-4.5-.5-1.6-.7-3.3-.8-5,0-1.7-.1-3.5-.1-5.2,0-3.6,0-7.2,0-10.9,0-1.7.1-3.4.2-5.2,0-1.5.3-3,.8-4.4.9-2.7,2.4-4.9,4.7-6.6C7.8,1.5,9.9.8,12.2.4c1.4-.2,2.9-.3,4.3-.3.3,0,.7,0,1,0-.2,0-.3,0-.5,0C16.6,0,16.2,0,15.8,0ZM45.5,24.9h0c0-3.3-.1-6.6-.2-9.9,0-1.6-.2-3.1-.8-4.6-.8-2.3-2.4-3.9-4.6-4.8-1.4-.6-2.9-.8-4.5-.9-1.3,0-2.5-.1-3.8-.1-1.4,0-2.8,0-4.3,0-2.3,0-4.6,0-6.9,0-.8,0-1.7,0-2.5,0-.9,0-1.8,0-2.7,0-1.5,0-3,.2-4.4.7-2.5.8-4.3,2.4-5.2,4.9-.6,1.4-.8,2.8-.8,4.3,0,1.3-.1,2.6-.1,4,0,1.3,0,2.7,0,4,0,3.2,0,6.4,0,9.6,0,1.3,0,2.5.1,3.8,0,1.2.3,2.3.7,3.5.8,2.4,2.4,4,4.7,5,1.4.6,2.9.8,4.4.9,1.3,0,2.6.1,4,.2,1.4,0,2.7,0,4.1,0,3.4,0,6.8,0,10.2,0,1.4,0,2.7,0,4.1-.2,1-.1,2-.4,3-.8,2-.8,3.5-2.3,4.4-4.3.7-1.5.9-3,1-4.6,0-1.3.1-2.7.1-4,0-2.2,0-4.4,0-6.5h0Z"/>
        <path d="M25.1,37.8c-7.1,0-12.8-5.7-12.8-12.9,0-7.1,5.7-12.8,12.8-12.8,7,0,12.8,5.6,12.8,12.8,0,7.1-5.7,12.7-12.8,12.8h0ZM16.8,25c-.1,4.1,3.3,8.1,7.9,8.3,4.9.2,8.6-3.8,8.7-8.1,0-4.1-3.1-8.2-7.9-8.4-5.1-.2-8.9,4-8.7,8.3Z"/>
        <path d="M38.4,8.6c1.6,0,3,1.3,3,3,0,1.6-1.3,3-3,3-1.7,0-3-1.3-3-3,0-1.6,1.3-3,3-3h0Z"/>
      </g>
    </g>
  </g>
</svg>