<?xml version="1.0" encoding="UTF-8"?><svg id="_レイヤー_2" xmlns="http://www.w3.org/2000/svg" viewBox="0 0 50 50"><defs><style>.cls-1{fill:#fff;}</style></defs><g id="_テキスト"><path d="m15.81,0C22.1,0,28.39,0,34.69,0c-.07,0-.14.02-.21.02-.31,0-.62.01-.92.01-.31,0-.63,0-.94,0,0,.02,0,.03,0,.05.54.02,1.09.02,1.63.05.96.05,1.92.07,2.88.16,1.54.15,3.02.51,4.46,1.09,2.77,1.13,4.89,3.01,6.35,5.61,1.15,2.05,1.67,4.3,1.84,6.62.09,1.25.09,2.5.13,3.75,0,.08.01.16.02.24.03-.09.03-.18.03-.26.01-.35.02-.7.04-1.05v16.6c-.02-.2-.04-.41-.06-.64-.01.08-.02.14-.02.2-.02.69-.05,1.39-.06,2.08-.03,1.97-.26,3.91-.85,5.8-.76,2.45-2.13,4.5-4.09,6.15-1.44,1.21-3.1,2-4.9,2.52-1.54.44-3.11.63-4.7.7-1.61.07-3.21.14-4.82.14-4.58,0-9.16.08-13.74-.07-1.33-.04-2.65-.13-3.98-.25-1.11-.1-2.18-.36-3.24-.7-2.46-.79-4.49-2.19-6.13-4.18-1.1-1.35-1.84-2.88-2.34-4.54-.49-1.62-.7-3.28-.77-4.96-.07-1.73-.14-3.46-.14-5.2-.01-3.63,0-7.25.03-10.88.02-1.73.1-3.45.17-5.18.07-1.5.34-2.96.79-4.4.85-2.73,2.43-4.94,4.73-6.63C7.76,1.49,9.91.76,12.2.4c1.43-.23,2.87-.26,4.31-.27.34,0,.67-.03,1.01-.04-.16-.03-.33-.03-.49-.03C16.62.04,16.22.02,15.81,0Zm29.67,24.91s.06,0,.08,0c-.06-3.29-.12-6.58-.2-9.88-.04-1.58-.25-3.14-.81-4.64-.84-2.26-2.37-3.87-4.59-4.81-1.42-.6-2.93-.83-4.45-.91-1.27-.07-2.55-.11-3.82-.14-1.42-.03-2.84-.04-4.26-.04-2.3,0-4.61.01-6.91.03-.83,0-1.66.02-2.49.04-.91.02-1.82.04-2.72.07-1.49.05-2.97.21-4.4.68-2.5.82-4.27,2.43-5.25,4.87-.55,1.37-.78,2.81-.85,4.27-.07,1.32-.11,2.63-.14,3.95-.03,1.33-.04,2.66-.04,3.99.01,3.21.04,6.42.08,9.63.02,1.27.07,2.55.14,3.82.06,1.18.28,2.34.68,3.46.83,2.36,2.39,4.03,4.7,5,1.41.59,2.9.8,4.41.89,1.31.08,2.63.12,3.95.15,1.35.03,2.71.04,4.06.03,3.4-.01,6.8-.03,10.2-.07,1.37-.02,2.74-.06,4.1-.24,1.02-.14,2.02-.36,2.97-.75,2.03-.84,3.51-2.26,4.42-4.26.65-1.45.91-2.99,1-4.56.07-1.34.13-2.68.14-4.02.02-2.18,0-4.37,0-6.55Z"/><path class="cls-1" d="m15.81,0c.41.02.81.04,1.22.06.16,0,.33,0,.49.03-.34.01-.67.04-1.01.04-1.44.01-2.88.04-4.31.27-2.29.36-4.44,1.09-6.33,2.47-2.3,1.69-3.88,3.9-4.73,6.63-.45,1.43-.72,2.9-.79,4.4-.08,1.72-.16,3.45-.17,5.18-.03,3.63-.05,7.25-.03,10.88,0,1.73.07,3.46.14,5.2.07,1.68.28,3.34.77,4.96.51,1.65,1.24,3.19,2.34,4.54,1.63,2,3.67,3.39,6.13,4.18,1.06.34,2.14.6,3.24.7,1.32.12,2.65.21,3.98.25,4.58.15,9.16.07,13.74.07,1.61,0,3.22-.07,4.82-.14,1.59-.07,3.17-.26,4.7-.7,1.8-.52,3.45-1.31,4.9-2.52,1.97-1.65,3.33-3.7,4.09-6.15.59-1.89.82-3.83.85-5.8.01-.69.04-1.39.06-2.08,0-.06.01-.11.02-.2.02.24.04.44.06.64v17.09H0V0C5.27,0,10.54,0,15.81,0Z"/><path class="cls-1" d="m50,16.31c-.01.35-.03.7-.04,1.05,0,.09,0,.17-.03.26,0-.08-.02-.16-.02-.24-.04-1.25-.04-2.5-.13-3.75-.17-2.33-.69-4.57-1.84-6.62-1.46-2.6-3.58-4.48-6.35-5.61-1.43-.58-2.92-.94-4.46-1.09-.96-.09-1.92-.12-2.88-.16-.54-.03-1.09-.03-1.63-.05,0-.02,0-.03,0-.05.31,0,.63,0,.94,0,.31,0,.62,0,.92-.01.07,0,.14-.02.21-.02,5.1,0,10.21,0,15.31,0v16.31Z"/><path d="m25.08,37.75c-7.09-.08-12.82-5.65-12.81-12.86.02-7.13,5.69-12.78,12.82-12.77,7.04.01,12.77,5.57,12.78,12.81,0,7.14-5.66,12.71-12.79,12.81Zm-8.29-12.8c-.12,4.08,3.27,8.09,7.93,8.27,4.9.19,8.59-3.79,8.66-8.15.06-4.1-3.12-8.21-7.92-8.44-5.09-.24-8.87,4.03-8.67,8.32Z"/><path d="m38.38,8.63c1.62-.01,2.97,1.34,2.99,2.99.02,1.62-1.33,2.97-2.97,2.98-1.66.02-3-1.31-3.01-2.98-.01-1.65,1.32-2.99,2.99-3Z"/></g></svg>