<?xml version="1.0" encoding="UTF-8"?><svg id="_レイヤー_2" xmlns="http://www.w3.org/2000/svg" viewBox="0 0 43.91 45"><defs><style>.cls-1{fill:#fff;}</style></defs><g id="_テキスト"><path d="m3.85,45H0c.03-.06.06-.12.11-.17.4-.47.8-.94,1.21-1.4,3.05-3.55,6.1-7.1,9.15-10.65,2.19-2.54,4.37-5.09,6.56-7.63.04-.04.07-.09.11-.14-.04-.06-.07-.11-.11-.16-2.13-3.11-4.27-6.21-6.4-9.32C7.11,10.41,3.6,5.29.09.17.05.12.03.06,0,0,4.36,0,8.72,0,13.08,0c.03.06.06.12.1.17,3.71,5.4,7.42,10.81,11.13,16.21.03.05.07.1.11.16.06-.07.11-.12.15-.18C29.22,10.96,33.87,5.56,38.51.16c.04-.05.08-.11.12-.16,1.29,0,2.59,0,3.88,0-.05.06-.09.12-.14.17-.94,1.09-1.88,2.19-2.82,3.28-4.38,5.1-8.76,10.19-13.14,15.29-.09.1-.17.2-.27.31.05.07.09.14.14.2,4.83,7.03,9.66,14.07,14.49,21.1,1.01,1.48,2.03,2.95,3.04,4.43.04.06.06.14.09.21h-13.05c-.4-.58-.79-1.16-1.19-1.74-3.56-5.19-7.13-10.38-10.7-15.58-.03-.05-.07-.1-.11-.15-.05.06-.09.1-.13.15-.53.61-1.05,1.22-1.58,1.83-3.91,4.54-7.81,9.09-11.72,13.63-.53.62-1.06,1.23-1.58,1.85ZM5.25,2.93c.09.13.15.22.21.31,2.79,4,5.58,7.99,8.38,11.99,4.65,6.65,9.29,13.3,13.94,19.95,1.6,2.29,3.2,4.58,4.8,6.87.07.09.13.15.26.15,1.88,0,3.75,0,5.63,0,.05,0,.09,0,.17-.02-.06-.09-.11-.16-.16-.23-2.6-3.72-5.2-7.44-7.8-11.16C24.23,21.56,17.78,12.33,11.33,3.1c-.09-.12-.17-.17-.33-.17-1.84,0-3.68,0-5.52,0h-.24Z"/><path class="cls-1" d="m30.67,30.79c2.6,3.72,5.2,7.44,7.8,11.16.05.07.09.14.16.23-.07,0-.12.02-.17.02-1.88,0-3.75,0-5.63,0-.13,0-.2-.06-.26-.15"/></g></svg>