<?xml version="1.0" encoding="UTF-8"?><svg id="_レイヤー_2" xmlns="http://www.w3.org/2000/svg" viewBox="0 0 53 53"><defs><style>.cls-1{fill:none;stroke:#000;stroke-miterlimit:10;stroke-width:3px;}</style></defs><g id="_テキスト"><path d="m10.02,36.89v-19.66h4.72v7.49h6.46v-7.49h4.7v19.66h-4.7v-8.07h-6.46v8.07h-4.72Z"/><path d="m30.44,36.89v-19.66h6.91c1.44,0,2.76.2,3.95.59,1.19.4,2.14,1.06,2.85,1.99.71.93,1.07,2.21,1.07,3.83s-.36,2.82-1.07,3.81c-.71.99-1.66,1.73-2.84,2.2-1.18.48-2.46.71-3.85.71h-2.3v6.52h-4.72Zm4.72-10.24h2.06c1.14,0,2-.26,2.56-.78.56-.52.84-1.26.84-2.23s-.3-1.68-.91-2.07c-.61-.4-1.48-.59-2.62-.59h-1.93v5.67Z"/><circle class="cls-1" cx="26.5" cy="26.5" r="25"/></g></svg>