<?xml version="1.0" encoding="UTF-8"?><svg id="_レイヤー_2" xmlns="http://www.w3.org/2000/svg" viewBox="0 0 49.27 20"><defs><style>.cls-1{fill:#231815;}</style></defs><g id="_オブジェクト"><path class="cls-1" d="m48.62,9.92l-.11.18c-.28.43-.81,1.12-1.29.97-.11-.03-.2-.16-.2-.38,0-.04,0-.09.01-.14,0-.02.82-3.08.82-3.08.05-.2.09-.42.12-.6.02-.16.03-.32.03-.47,0-.52-.14-.95-.41-1.26-.32-.36-.8-.55-1.4-.55-.55,0-1.08.22-1.44.48-.02-.08-.05-.29-.05-.29h-2.76s-1.05,3.91-1.05,3.93c-.69,1.41-2.42,2.28-3.64,2.29-.24,0-.45-.06-.61-.17-.17-.16-.26-.44-.27-.82.17-.08,3.83-1.8,3.83-1.8l.02-.06c.07-.25.08-.27.08-.36l.02-.2c.04-.26.05-.51.05-.75,0-.73-.17-1.3-.53-1.7-.37-.42-.92-.64-1.64-.64-2.48,0-4.3,2.45-4.62,4.82-.03.25-.05.48-.05.71s.02.46.06.67c-.29.26-.75.37-1.09.36-.06,0-.08-.03-.09-.04-.12-.17.04-.77.14-1.13h0S35.11.42,35.11.42h-2.93s-1.09,4.07-1.22,4.57c-.21-.22-.51-.39-1.01-.39-3.42,0-4.13,4.49-4.2,5-.03.24-.05.46-.05.68,0,.17.01.34.03.5-.26.21-.8.33-1.02.3-.03,0-.05-.02-.07-.05-.1-.16-.06-.63.12-1.2,0,0,1.35-5.03,1.35-5.03h-2.91s-1.04,3.9-1.05,3.94c-.67,1.4-2.42,2.27-3.66,2.27-.24,0-.45-.06-.61-.17-.17-.16-.26-.44-.28-.82.17-.08,3.83-1.8,3.83-1.8l.02-.06c.07-.25.08-.27.08-.36l.02-.2c.04-.26.05-.51.05-.75,0-.73-.18-1.3-.53-1.7-.37-.42-.92-.64-1.64-.64-2.48,0-4.3,2.45-4.62,4.82-.03.25-.05.49-.05.71,0,.44.06.83.19,1.18l.08.2c.43.94,1.28,1.38,2.67,1.39,1.44,0,2.83-.63,3.88-1.75,0,.02,0,.04,0,.06,0,.32.07.7.3,1.02.32.44.88.66,1.66.66,1.11,0,1.8-.43,2.05-.61.18-.13.33-.26.46-.39.36.62.97.96,1.78.98,1.23.03,1.75-.27,2.39-.72.3.46.77.72,1.38.74.81.03,1.36-.1,1.8-.42.27-.2.45-.43.59-.63.47.71,1.27,1.05,2.48,1.05,1.38,0,2.71-.57,3.74-1.6-.14.52-.36,1.35-.36,1.35h2.93l1.32-4.95c.22-.79.46-1.18.74-1.18.09,0,.13.03.15.05.04.04.09.15.05.45-.02.11-.04.24-.08.4,0,0-.61,2.28-.61,2.28-.34,1.2-.31,2.05.09,2.58.31.41.84.62,1.58.62.66,0,1.42-.29,1.81-.57.55-.39.9-.78,1.37-1.39l.07-.09-.65-.83Zm-11.82-2.21c.28-1.03.78-1.77.98-1.77.12,0,.14.2.14.45,0,.14-.01.31-.04.51-.03.24-.09.57-.14.81-.1.04-.73.34-1.07.5.06-.23.13-.5.13-.5h0Zm-18.76,0c.28-1.03.78-1.77.98-1.77.12,0,.14.2.14.45,0,.14-.01.31-.04.51-.03.24-.09.57-.14.81-.1.04-.73.34-1.07.5.06-.23.13-.5.13-.5Zm12.26-.56c-.17,1.33-.95,3.87-1.64,3.87-.02,0-.04,0-.06-.03-.06-.07-.11-.25-.11-.56,0-.16.01-.35.04-.58.15-1.14.86-3.81,1.55-3.81.06,0,.1.02.13.06.06.07.19.3.09,1.06Z"/><path class="cls-1" d="m15.07.36h-2.67s-3.6,6.05-4.02,6.75c-.07-.8-.6-6.75-.6-6.75h-3.19L0,12.53h2.82s1.78-4.71,2.17-5.74c.07,1.09.37,5.74.37,5.74h2.03s2.8-4.58,3.4-5.56c-.15,1.1-.76,5.56-.76,5.56h3.58L15.39.36h-.32Z"/><path class="cls-1" d="m23.72,2.39h0c-.07.51.04.95.3,1.25.21.24.5.37.83.37.97,0,1.97-1.08,2.14-2.32.07-.53-.04-1.02-.32-1.33-.21-.24-.49-.36-.81-.36-.99,0-1.97,1.1-2.14,2.39Z"/><path class="cls-1" d="m47.73,15.39L.24,15.79l3.72,4.21.08-.02c9.89-1.81,19.56-2.52,43.59-3.71h.12s.16-.88.16-.88h-.18Z"/></g></svg>