<?xml version="1.0" encoding="utf-8"?>
<!-- Generator: Adobe Illustrator 27.4.1, SVG Export Plug-In . SVG Version: 6.00 Build 0)  -->
<svg version="1.1" id="レイヤー_1" xmlns="http://www.w3.org/2000/svg" xmlns:xlink="http://www.w3.org/1999/xlink" x="0px"
	 y="0px" viewBox="0 0 24 24" style="enable-background:new 0 0 24 24;" xml:space="preserve">
<style type="text/css">
	.st0{fill:#FFFFFF;}
</style>
<path class="st0" d="M17,22c-0.8,0-1.5-0.3-2.1-0.9S14,19.8,14,19c0-0.1,0-0.3,0.1-0.7l-7-4.1c-0.3,0.2-0.6,0.4-0.9,0.6S5.4,15,5,15
	c-0.8,0-1.5-0.3-2.1-0.9C2.3,13.5,2,12.8,2,12s0.3-1.5,0.9-2.1S4.2,9,5,9c0.4,0,0.8,0.1,1.1,0.2s0.7,0.3,0.9,0.6l7-4.1
	C14,5.6,14,5.5,14,5.4c0-0.1,0-0.2,0-0.4c0-0.8,0.3-1.5,0.9-2.1S16.2,2,17,2c0.8,0,1.5,0.3,2.1,0.9C19.7,3.5,20,4.2,20,5
	s-0.3,1.5-0.9,2.1C18.5,7.7,17.8,8,17,8c-0.4,0-0.8-0.1-1.1-0.2c-0.3-0.1-0.7-0.3-0.9-0.6l-7,4.1C8,11.4,8,11.5,8,11.6s0,0.2,0,0.4
	c0,0.1,0,0.3,0,0.4s0,0.2-0.1,0.3l7,4.1c0.3-0.2,0.6-0.4,0.9-0.6c0.4-0.1,0.7-0.2,1.1-0.2c0.8,0,1.5,0.3,2.1,0.9
	c0.6,0.6,0.9,1.3,0.9,2.1s-0.3,1.5-0.9,2.1C18.5,21.7,17.8,22,17,22z M17,20c0.3,0,0.5-0.1,0.7-0.3c0.2-0.2,0.3-0.4,0.3-0.7
	s-0.1-0.5-0.3-0.7C17.5,18.1,17.3,18,17,18s-0.5,0.1-0.7,0.3C16.1,18.5,16,18.7,16,19s0.1,0.5,0.3,0.7C16.5,19.9,16.7,20,17,20z
	 M5,13c0.3,0,0.5-0.1,0.7-0.3S6,12.3,6,12s-0.1-0.5-0.3-0.7S5.3,11,5,11s-0.5,0.1-0.7,0.3C4.1,11.5,4,11.7,4,12s0.1,0.5,0.3,0.7
	C4.5,12.9,4.7,13,5,13z M17,6c0.3,0,0.5-0.1,0.7-0.3C17.9,5.5,18,5.3,18,5s-0.1-0.5-0.3-0.7C17.5,4.1,17.3,4,17,4s-0.5,0.1-0.7,0.3
	C16.1,4.5,16,4.7,16,5s0.1,0.5,0.3,0.7S16.7,6,17,6z"/>
</svg>
